<?xml version="1.0" standalone="no"?>
<!DOCTYPE svg PUBLIC "-//W3C//DTD SVG 20010904//EN"
 "http://www.w3.org/TR/2001/REC-SVG-20010904/DTD/svg10.dtd">
<svg version="1.0" xmlns="http://www.w3.org/2000/svg"
 width="1024.000000pt" height="1024.000000pt" viewBox="0 0 1024.000000 1024.000000"
 preserveAspectRatio="xMidYMid meet">

<g transform="translate(0.000000,1024.000000) scale(0.100000,-0.100000)"
fill="current" stroke="current">
<path d="M4893 10173 c-13 -2 -23 -12 -23 -21 0 -13 -2 -13 -13 3 -13 17 -22
17 -158 6 -79 -7 -151 -15 -159 -18 -8 -3 -46 -6 -85 -6 -38 -1 -74 -7 -80
-13 -13 -15 -83 -25 -90 -14 -3 5 -18 3 -33 -5 -15 -7 -45 -18 -67 -24 -22 -6
-50 -13 -62 -16 -15 -4 -23 -2 -23 6 0 9 -3 9 -15 -1 -8 -6 -22 -9 -32 -6 -26
8 -61 -20 -45 -36 17 -17 15 -28 -4 -28 -8 0 -12 5 -9 10 3 6 -1 10 -9 10 -8
0 -18 -5 -21 -10 -4 -6 -11 -7 -17 -4 -7 5 -4 12 7 21 11 7 14 13 8 13 -6 0
-16 -7 -23 -15 -7 -8 -25 -15 -41 -15 -22 0 -27 -4 -23 -17 5 -15 3 -15 -11 2
-12 14 -19 16 -22 8 -3 -8 -14 -11 -30 -7 -28 8 -73 -13 -73 -33 0 -10 -7 -12
-19 -8 -11 3 -22 1 -26 -5 -3 -5 -17 -10 -30 -10 -12 0 -26 -7 -29 -16 -5 -13
-16 -15 -65 -9 -62 7 -70 5 -146 -44 -22 -14 -44 -26 -50 -26 -40 -4 -85 -19
-89 -31 -4 -10 -14 -12 -31 -8 -16 4 -25 2 -25 -6 0 -6 -8 -10 -17 -8 -10 1
-39 -7 -65 -20 -26 -12 -52 -22 -58 -22 -5 0 -10 -7 -10 -16 0 -10 -6 -14 -14
-11 -7 3 -19 0 -25 -6 -8 -8 -11 -7 -11 3 0 10 -3 10 -17 -2 -30 -25 -111 -68
-128 -68 -8 0 -18 -7 -22 -16 -3 -8 -12 -13 -20 -10 -7 3 -21 -3 -30 -13 -10
-12 -25 -18 -40 -15 -17 3 -26 -2 -34 -20 -6 -13 -21 -27 -33 -30 -12 -3 -31
-15 -44 -26 -15 -14 -29 -19 -46 -14 -21 5 -29 -1 -50 -35 -15 -23 -32 -41
-40 -41 -7 0 -19 -7 -26 -15 -7 -8 -23 -15 -36 -15 -13 0 -23 -5 -22 -12 2 -7
-4 -13 -12 -13 -68 -6 -102 -33 -79 -61 9 -11 8 -15 -4 -20 -9 -3 -21 -2 -28
2 -8 5 -9 3 -4 -5 5 -9 -2 -12 -26 -9 -28 2 -33 0 -31 -15 3 -14 -1 -17 -16
-13 -13 5 -30 -5 -58 -31 -21 -20 -39 -41 -39 -47 0 -6 -8 -11 -17 -11 -10 0
-23 -6 -30 -13 -6 -6 -18 -12 -25 -12 -7 0 -13 -4 -13 -9 0 -5 -12 -22 -27
-38 -16 -15 -37 -40 -48 -55 -11 -16 -27 -28 -35 -29 -10 0 -11 -2 -2 -6 21
-8 13 -23 -13 -23 -22 0 -25 -3 -19 -26 6 -23 4 -25 -13 -20 -22 7 -73 -27
-73 -49 0 -8 -11 -26 -25 -41 -14 -15 -25 -31 -25 -35 0 -5 -6 -9 -13 -9 -8 0
-24 -11 -37 -25 -13 -14 -38 -28 -57 -31 -39 -7 -48 -19 -44 -56 2 -20 -2 -28
-13 -28 -9 0 -16 -6 -16 -13 0 -7 -13 -18 -30 -24 -18 -7 -30 -18 -30 -30 0
-14 -2 -15 -9 -4 -7 11 -11 9 -21 -9 -8 -15 -8 -20 -1 -16 15 10 14 -17 -1
-32 -7 -7 -20 -12 -29 -12 -10 0 -20 -6 -22 -12 -4 -10 -8 -9 -16 2 -8 12 -11
5 -11 -27 0 -35 -3 -43 -18 -43 -10 0 -25 -11 -32 -25 -7 -14 -19 -25 -26 -25
-7 0 -22 -12 -34 -27 -20 -25 -20 -28 -4 -33 17 -6 17 -7 0 -13 -11 -4 -16
-15 -14 -29 3 -24 -29 -39 -67 -31 -13 2 -25 -4 -33 -17 -7 -12 -8 -20 -2 -20
17 0 11 -20 -7 -27 -10 -4 -28 -16 -39 -27 -20 -18 -21 -22 -7 -43 16 -24 10
-43 -14 -43 -10 0 -14 6 -10 20 3 11 2 20 -3 20 -10 0 -24 -31 -21 -49 1 -7
-2 -10 -7 -7 -5 3 -15 -1 -21 -8 -9 -11 -9 -19 1 -35 7 -12 16 -21 20 -21 4 0
5 -7 2 -15 -4 -11 -13 -13 -28 -9 -19 6 -20 5 -6 -11 16 -20 17 -20 -35 1 -11
4 -15 -1 -16 -20 -2 -30 -3 -34 -13 -59 -5 -9 -6 -26 -3 -36 5 -19 -5 -26 -62
-40 -34 -9 -49 -36 -33 -61 17 -28 16 -30 -18 -30 -16 0 -30 -4 -30 -10 0 -5
7 -7 15 -4 8 4 15 1 15 -4 0 -6 -9 -14 -20 -17 -11 -3 -20 -12 -20 -20 0 -7
-6 -15 -14 -18 -9 -4 -12 -15 -8 -32 3 -20 0 -27 -14 -31 -19 -5 -54 -55 -54
-76 0 -6 9 -8 20 -5 32 8 23 -17 -10 -30 -29 -11 -42 -32 -17 -29 6 0 13 -3
14 -9 2 -5 -9 -10 -24 -10 -21 1 -31 -7 -44 -32 -20 -39 -29 -92 -17 -99 4 -3
8 -14 8 -25 0 -13 -7 -19 -24 -19 -15 0 -34 -12 -50 -31 -28 -33 -31 -44 -16
-54 15 -9 12 -25 -5 -25 -8 0 -15 -5 -15 -10 0 -6 8 -10 18 -8 11 2 17 -3 17
-17 0 -15 -7 -20 -27 -20 -16 1 -28 -5 -28 -12 0 -7 7 -10 15 -7 8 4 15 1 15
-5 0 -6 -11 -16 -24 -21 -25 -9 -50 -43 -39 -53 11 -11 -8 -58 -32 -79 -16
-14 -26 -36 -31 -67 -3 -25 -12 -53 -19 -61 -7 -8 -13 -22 -13 -30 -1 -8 -4
-30 -7 -48 -2 -18 -1 -31 4 -28 5 3 14 -1 21 -9 11 -13 8 -14 -17 -9 -33 6
-44 -6 -50 -58 -1 -15 -10 -46 -18 -70 -9 -24 -29 -83 -45 -133 -16 -49 -34
-103 -40 -120 -6 -16 -13 -44 -16 -61 -2 -17 -11 -48 -20 -69 -8 -21 -17 -57
-19 -80 -3 -23 -11 -55 -20 -71 -18 -34 -19 -56 -4 -71 8 -8 6 -16 -9 -31 -11
-11 -25 -46 -32 -79 -6 -32 -16 -73 -22 -92 -5 -18 -12 -70 -14 -115 -2 -44
-9 -82 -14 -84 -6 -2 -10 -10 -10 -18 0 -8 -7 -17 -16 -21 -12 -4 -11 -8 7
-17 26 -13 39 -39 15 -30 -12 5 -16 -1 -17 -22 -1 -16 -2 -45 -3 -64 -2 -19
-3 -47 -4 -62 -2 -19 -8 -28 -24 -30 -32 -5 -35 -28 -4 -28 19 0 26 -5 26 -20
0 -13 -7 -20 -20 -20 -23 0 -26 -22 -7 -42 21 -21 34 -80 26 -113 -6 -19 -4
-32 3 -36 6 -4 2 -10 -12 -14 l-22 -7 28 -29 28 -29 -27 0 c-15 0 -27 -4 -27
-10 0 -5 4 -10 9 -10 13 0 21 -42 10 -56 -7 -8 -3 -13 12 -17 22 -6 18 -27 -5
-27 -17 0 -9 -55 10 -71 16 -13 19 -45 4 -54 -16 -10 -12 -28 5 -21 17 6 22
-29 5 -39 -5 -3 -7 -12 -3 -20 3 -9 -1 -15 -8 -15 -10 0 -10 -3 -1 -12 7 -7
12 -22 12 -34 0 -13 5 -26 11 -29 6 -4 8 -13 5 -20 -3 -8 0 -15 6 -17 8 -3 8
-13 0 -37 -10 -29 -9 -36 5 -46 11 -8 14 -20 9 -38 -5 -20 -3 -27 8 -27 12 0
12 -4 -1 -31 -14 -28 -14 -32 3 -50 9 -10 29 -19 43 -19 25 0 25 -1 -8 -17
-31 -15 -32 -18 -15 -30 10 -7 13 -13 6 -13 -7 0 -9 -14 -6 -43 4 -29 14 -50
34 -68 27 -26 28 -28 11 -43 -10 -9 -23 -16 -29 -16 -7 0 -6 -9 3 -27 8 -16
20 -47 25 -70 6 -24 16 -43 21 -43 7 0 9 -10 5 -25 -5 -18 -2 -27 8 -31 11 -4
13 -14 9 -35 -5 -25 -2 -31 15 -35 21 -6 32 -40 32 -100 0 -19 5 -34 10 -34 6
0 10 -12 10 -27 0 -15 4 -40 9 -57 50 -163 76 -238 96 -279 14 -26 24 -48 23
-50 -8 -16 64 -166 80 -167 7 0 11 -4 8 -9 -3 -4 3 -26 13 -47 11 -21 17 -42
14 -46 -2 -5 3 -8 11 -8 9 0 15 -3 15 -7 -4 -23 3 -42 22 -61 11 -12 17 -27
13 -34 -4 -6 -3 -8 4 -4 6 4 17 -15 26 -49 10 -32 24 -59 36 -65 11 -6 20 -19
20 -29 0 -10 7 -24 15 -31 8 -7 15 -18 15 -24 0 -6 14 -25 30 -43 17 -18 30
-36 30 -42 0 -13 40 -83 54 -96 10 -9 83 -124 113 -177 6 -12 22 -33 35 -47
29 -32 58 -77 58 -91 0 -5 15 -25 34 -43 18 -17 41 -46 49 -63 9 -17 28 -39
42 -48 14 -9 23 -21 20 -26 -3 -5 6 -17 20 -26 14 -9 25 -22 25 -28 0 -7 16
-27 35 -46 19 -19 35 -39 35 -45 0 -6 20 -29 43 -51 24 -23 47 -49 50 -58 4
-10 21 -23 37 -29 22 -8 28 -16 24 -29 -4 -13 3 -23 25 -35 16 -10 32 -26 34
-35 3 -10 17 -22 32 -28 16 -6 23 -14 19 -22 -5 -7 -2 -9 8 -5 18 6 38 -10 38
-33 0 -17 79 -100 96 -100 6 0 19 -7 30 -15 19 -15 19 -15 -1 -8 -16 5 -14 0
9 -25 17 -18 37 -32 47 -32 9 0 20 -7 23 -16 4 -9 13 -14 21 -10 8 3 14 1 12
-5 -1 -6 7 -16 18 -22 10 -7 25 -18 33 -25 7 -7 18 -10 23 -6 5 3 -1 14 -13
24 -17 13 -20 22 -12 30 8 8 23 0 55 -30 24 -22 59 -50 77 -63 18 -12 35 -33
39 -47 7 -27 26 -50 42 -50 5 0 12 -9 16 -19 8 -25 122 -131 141 -131 8 0 14
-4 14 -8 0 -5 19 -19 43 -32 23 -13 52 -31 65 -41 13 -10 47 -25 75 -35 29 -9
58 -25 64 -35 8 -10 21 -15 32 -12 11 3 27 -3 39 -15 27 -27 56 -42 81 -42 12
0 55 -18 96 -40 41 -22 75 -37 75 -33 0 4 6 0 13 -9 6 -8 28 -21 47 -28 19 -8
46 -22 59 -32 13 -10 30 -18 37 -18 7 0 27 -8 45 -19 17 -10 39 -17 49 -14 10
3 34 -3 54 -12 19 -9 39 -14 44 -11 4 3 34 -3 66 -13 44 -14 62 -25 79 -52
l22 -34 3 28 c3 24 7 28 25 23 12 -3 25 -6 29 -6 4 0 10 -9 13 -20 4 -11 11
-17 17 -14 6 4 14 1 18 -7 7 -10 11 -10 23 0 10 8 17 8 21 2 4 -6 13 -8 21 -4
8 3 15 1 15 -5 0 -6 9 -8 20 -5 17 5 19 1 15 -31 -4 -33 6 -48 19 -28 3 5 19
9 36 10 23 0 30 -4 30 -18 0 -10 5 -22 10 -25 6 -3 10 1 10 9 0 9 5 16 10 16
6 0 10 -6 10 -14 0 -24 16 -27 40 -6 25 22 40 18 40 -11 0 -10 5 -19 10 -19 6
0 10 4 10 9 0 5 9 11 20 14 11 3 20 0 20 -6 0 -8 3 -8 11 0 18 18 59 3 59 -22
0 -13 7 -25 15 -29 8 -3 15 -1 15 5 0 6 4 8 8 5 5 -3 18 2 28 12 29 26 123 24
149 -3 18 -19 28 -21 78 -15 32 3 60 3 63 -2 3 -4 15 -8 27 -8 12 0 29 0 37
-1 8 -1 22 2 31 5 11 5 18 1 22 -13 6 -24 37 -29 37 -6 0 18 1 18 34 5 14 -5
26 -16 26 -25 0 -21 56 -20 64 1 8 22 0 30 -16 16 -9 -7 -17 -6 -25 3 -8 9 -9
16 -3 20 6 3 10 0 10 -7 0 -9 2 -10 8 -1 5 8 17 6 44 -7 21 -10 42 -14 49 -9
7 4 18 5 24 1 14 -9 37 -9 58 1 11 5 17 4 17 -4 0 -22 44 -51 72 -47 18 3 28
0 28 -8 0 -7 10 -16 22 -20 33 -10 68 47 36 59 -7 3 8 4 34 2 26 -2 52 -6 58
-10 5 -3 10 -2 10 4 0 5 8 8 18 6 9 -2 23 -4 30 -4 10 -1 10 -6 2 -21 -6 -11
-16 -20 -23 -19 -22 4 -47 -13 -47 -32 0 -17 3 -18 23 -7 12 7 29 18 37 24 20
13 45 12 45 -3 0 -20 16 -28 25 -13 8 12 13 13 30 3 26 -17 40 -16 40 2 0 9 6
12 15 9 8 -4 15 -1 15 5 0 6 -10 11 -23 11 -24 0 -77 21 -77 30 0 11 58 4 73
-8 10 -9 17 -10 22 -2 10 16 28 12 21 -5 -4 -10 3 -17 22 -21 15 -4 32 -9 37
-13 17 -10 35 -10 35 0 0 6 5 7 12 3 16 -10 70 -12 88 -3 8 4 24 1 34 -6 13
-10 25 -11 42 -5 13 5 24 7 24 4 0 -4 7 -1 15 6 8 6 20 8 27 4 15 -10 75 -7
146 7 37 7 57 7 66 0 8 -7 16 -7 22 -1 6 6 33 12 60 14 27 2 57 7 68 11 11 5
21 3 27 -6 5 -8 9 -9 9 -2 0 6 9 9 22 5 14 -3 19 -2 14 6 -5 8 1 12 14 12 12
0 18 -4 15 -10 -8 -12 45 -10 62 3 7 5 34 10 60 12 48 4 114 12 123 15 3 1 13
1 24 0 11 -1 15 3 12 9 -4 7 -1 9 8 5 8 -3 40 3 70 15 30 11 72 21 93 23 21 1
41 6 44 11 3 4 21 9 40 9 19 0 39 3 44 7 11 6 13 7 60 16 17 3 34 10 40 16 5
5 26 9 48 9 21 0 36 4 33 9 -3 5 0 8 7 7 19 -2 117 35 117 44 0 5 21 12 46 16
25 3 48 13 51 20 3 8 9 12 13 9 5 -3 15 2 24 11 9 8 20 12 26 9 5 -3 10 -1 10
4 0 6 3 10 8 9 11 -4 72 23 72 32 0 7 38 21 62 24 3 1 10 4 14 8 4 5 13 8 21
8 7 0 30 11 51 23 20 13 72 37 115 53 43 16 86 36 95 45 21 19 184 99 203 99
8 0 28 9 44 21 17 11 40 24 53 29 12 5 22 14 22 19 0 6 7 8 15 5 8 -4 15 -1
15 5 0 6 6 11 13 11 6 0 50 25 96 55 46 30 88 55 93 55 5 0 7 4 4 8 -3 5 11
14 30 21 18 7 34 17 34 22 0 5 8 12 18 16 26 9 122 75 122 85 0 4 5 8 10 8 9
0 66 38 100 68 8 6 47 37 85 68 39 31 97 80 129 108 149 129 496 491 496 517
0 6 11 20 25 31 14 11 42 45 63 76 54 81 55 83 77 108 53 61 75 93 75 108 0 9
5 16 10 16 6 0 16 12 23 27 6 16 27 48 46 73 19 25 41 61 49 80 8 19 22 46 32
60 44 64 264 499 256 507 -3 3 1 12 9 20 8 8 18 26 21 41 4 15 12 34 19 42 27
32 130 319 217 598 5 18 7 39 4 47 -3 8 -1 15 4 15 10 0 31 71 55 185 9 44 25
118 36 163 24 99 62 369 55 387 -2 7 2 43 9 81 22 118 22 346 1 609 -3 28 -8
89 -11 138 -4 48 -11 90 -16 92 -4 3 -6 12 -3 20 7 17 -22 218 -42 297 -8 32
-12 69 -10 83 3 14 1 23 -5 20 -5 -4 -9 0 -9 8 0 8 -7 20 -15 27 -8 7 -19 31
-25 54 -12 47 -22 87 -45 171 -23 88 -88 289 -94 295 -3 3 -8 14 -9 25 -2 11
-8 24 -13 30 -5 5 -9 17 -9 27 0 9 -11 41 -24 70 -13 29 -27 64 -31 78 -4 14
-16 41 -26 60 -11 19 -19 39 -19 43 0 5 -20 50 -44 100 -24 51 -49 109 -57
130 -7 20 -16 37 -20 37 -4 0 -11 10 -14 23 -7 25 -67 150 -75 157 -4 3 -24
42 -45 88 -22 45 -43 82 -47 82 -3 0 -17 21 -30 47 -13 26 -31 55 -40 65 -10
10 -18 23 -18 28 0 6 -15 32 -34 59 -19 27 -32 52 -28 57 4 4 2 4 -5 0 -7 -4
-14 3 -19 16 -4 13 -15 29 -26 36 -10 7 -16 17 -13 22 8 14 -24 35 -36 23 -8
-8 -5 -14 10 -22 12 -7 21 -18 21 -27 0 -8 7 -17 15 -20 8 -4 15 -15 15 -25 0
-10 5 -19 12 -19 6 0 8 -3 5 -6 -4 -4 3 -15 15 -26 23 -20 33 -36 75 -118 15
-30 34 -59 41 -63 6 -4 12 -24 12 -42 0 -32 8 -40 33 -36 4 0 7 -4 7 -9 0 -6
-4 -10 -10 -10 -5 0 -7 -6 -4 -14 3 -8 12 -12 19 -10 7 3 16 0 21 -7 4 -7 2
-15 -4 -17 -7 -2 -12 -8 -12 -13 0 -6 4 -8 9 -4 12 7 30 -25 24 -43 -3 -8 1
-10 11 -6 16 6 19 0 19 -38 0 -10 4 -15 8 -12 5 3 9 -11 9 -30 0 -25 4 -34 13
-30 17 6 54 -56 38 -66 -9 -5 -8 -10 4 -20 8 -7 15 -18 15 -25 0 -7 6 -15 13
-18 6 -2 21 -31 31 -63 11 -33 25 -66 32 -74 6 -8 10 -26 8 -39 -3 -14 3 -41
12 -60 44 -96 52 -118 58 -145 4 -16 15 -30 26 -33 22 -6 27 -29 8 -36 -10 -4
-9 -8 2 -16 8 -6 11 -11 5 -11 -5 -1 1 -6 15 -11 18 -7 21 -12 11 -18 -16 -10
-10 -57 6 -54 7 2 10 -4 7 -12 -4 -8 -1 -15 5 -15 6 0 8 -12 4 -31 -5 -26 -3
-30 13 -27 14 2 19 -3 19 -22 0 -14 5 -28 10 -32 6 -5 5 -8 -2 -8 -7 0 -13 -8
-13 -17 0 -15 2 -16 10 -3 7 10 9 0 7 -35 -1 -29 2 -49 8 -48 6 0 11 -25 12
-57 2 -50 36 -216 73 -350 5 -19 12 -55 15 -80 28 -230 38 -301 46 -306 5 -3
5 -13 0 -23 -6 -11 -6 -33 0 -60 6 -29 6 -47 -1 -56 -5 -6 -7 -14 -4 -18 11
-11 13 -163 2 -227 -10 -62 -18 -136 -20 -190 0 -14 -10 -77 -21 -140 -11 -63
-21 -129 -22 -146 -1 -17 -5 -36 -9 -42 -4 -7 -4 -16 -1 -22 3 -5 1 -27 -4
-47 -6 -21 -20 -81 -31 -133 -24 -108 -53 -219 -80 -300 -9 -30 -23 -75 -30
-100 -25 -89 -88 -262 -110 -302 -6 -10 -10 -22 -10 -27 0 -10 -66 -154 -134
-290 -51 -103 -122 -233 -177 -320 -111 -179 -400 -531 -604 -736 -38 -39 -84
-86 -101 -105 -18 -19 -49 -50 -70 -67 -92 -77 -153 -126 -212 -170 -34 -27
-99 -76 -143 -110 -43 -35 -81 -63 -84 -63 -2 0 -35 -23 -72 -51 -37 -28 -79
-56 -93 -63 -13 -6 -34 -20 -46 -31 -12 -11 -43 -31 -68 -43 -25 -13 -48 -27
-51 -33 -4 -5 -15 -9 -26 -9 -10 0 -19 -4 -19 -10 0 -5 -8 -10 -18 -10 -10 0
-26 -6 -37 -14 -11 -7 -32 -16 -47 -20 -16 -3 -28 -11 -28 -16 0 -6 -5 -10
-11 -10 -6 0 -22 -9 -36 -20 -14 -11 -41 -22 -60 -26 -22 -4 -32 -11 -29 -19
3 -9 -8 -15 -32 -20 -47 -9 -74 -23 -67 -36 4 -5 2 -9 -4 -9 -5 0 -13 5 -16
10 -9 15 -25 12 -19 -4 4 -10 -8 -16 -43 -21 -26 -4 -60 -13 -76 -21 -15 -8
-31 -12 -36 -10 -5 3 -14 0 -20 -8 -7 -8 -21 -12 -33 -8 -13 3 -19 1 -15 -5 4
-7 -11 -13 -38 -17 -32 -5 -46 -13 -50 -27 -6 -17 -9 -18 -18 -7 -7 7 -11 11
-10 9 1 -2 -2 -12 -8 -22 -8 -17 -20 -18 -97 -15 -48 2 -77 2 -64 -1 12 -2 22
-9 22 -14 0 -6 -9 -8 -19 -4 -13 4 -25 -2 -39 -22 -18 -25 -21 -26 -36 -10
-20 19 -32 21 -41 7 -3 -5 1 -10 10 -10 9 0 14 -4 10 -9 -3 -5 -28 -8 -56 -5
-27 2 -58 0 -67 -6 -14 -9 -13 -10 8 -5 l25 7 -24 -18 c-23 -16 -25 -16 -38 2
-12 17 -12 20 9 24 14 4 18 9 11 13 -13 8 -45 -2 -55 -17 -6 -8 -11 -6 -17 4
-6 8 -13 12 -16 9 -8 -8 5 -39 16 -39 5 0 9 -4 9 -10 0 -5 -7 -10 -15 -10 -8
0 -15 5 -15 10 0 6 -7 10 -15 10 -8 0 -14 -5 -13 -12 2 -7 -21 -16 -60 -24
-34 -6 -61 -9 -58 -7 4 4 -30 43 -37 43 -1 0 -3 -9 -4 -19 -1 -14 3 -18 14
-14 11 5 14 3 8 -6 -4 -7 -18 -11 -31 -8 -14 2 -27 0 -30 -5 -3 -5 -13 -7 -21
-4 -8 3 -23 1 -34 -4 -13 -7 -25 -7 -38 0 -11 6 -22 6 -25 1 -3 -5 -23 -9 -43
-10 -21 0 -50 -4 -65 -8 -15 -5 -50 -6 -78 -5 -40 3 -50 7 -50 22 0 10 -6 21
-12 24 -7 3 -3 3 10 0 12 -3 22 -1 22 4 0 13 -49 22 -56 10 -4 -7 -9 -6 -13 1
-4 5 -17 8 -29 5 -18 -5 -20 -10 -11 -25 10 -20 39 -26 39 -9 0 18 19 10 25
-11 8 -25 -3 -39 -15 -19 -7 12 -15 11 -49 -2 -23 -9 -41 -12 -41 -8 0 15 -68
23 -100 12 -26 -10 -30 -9 -30 8 0 10 -5 22 -10 25 -8 5 -8 11 0 20 8 9 6 12
-7 10 -18 -1 -66 -20 -86 -32 -6 -4 -8 2 -5 14 5 18 0 21 -50 26 -31 3 -61 2
-67 -3 -18 -15 -52 -15 -69 -1 -15 13 -19 13 -27 0 -7 -12 -9 -12 -9 1 0 13
-1 13 -10 0 -6 -9 -10 -10 -10 -3 0 12 -19 17 -102 28 -40 5 -48 3 -48 -9 0
-17 -25 -22 -34 -7 -6 9 -56 22 -56 14 0 -13 31 -32 56 -35 l29 -4 -28 -8
c-15 -5 -44 -5 -64 -1 -34 6 -36 8 -20 20 16 12 16 14 2 29 -18 18 -65 22 -65
6 0 -5 -4 -10 -10 -10 -5 0 -10 9 -10 20 0 14 -7 20 -21 20 -33 0 -19 -32 21
-46 19 -7 29 -13 23 -13 -7 -1 -13 -7 -13 -13 0 -7 -13 -13 -30 -14 -27 -1
-28 0 -12 13 16 14 16 14 -3 10 -20 -4 -45 13 -45 31 0 5 -11 8 -25 7 -14 -2
-25 1 -25 6 0 5 -10 9 -22 10 -13 0 -17 3 -11 6 25 10 -16 34 -67 40 -28 3
-53 10 -56 14 -8 14 -52 11 -57 -3 -4 -10 -8 -9 -16 2 -9 12 -11 9 -11 -14 0
-38 -9 -29 -12 12 -2 26 -6 31 -20 26 -10 -3 -18 0 -18 6 0 6 -11 3 -25 -6
-17 -11 -25 -13 -23 -5 3 13 -6 20 -59 45 -28 12 -33 12 -33 0 0 -18 -27 -18
-46 1 -21 21 -40 19 -23 -2 13 -16 13 -16 -11 0 -13 9 -32 17 -42 17 -11 0
-15 5 -12 15 4 10 0 15 -16 15 -11 0 -18 5 -15 10 3 6 -5 10 -18 10 -14 0 -27
-7 -31 -15 -9 -24 -22 -17 -33 18 -8 29 -12 32 -49 32 -24 0 -47 7 -57 16 -9
10 -49 21 -99 29 -92 13 -317 61 -391 84 -43 13 -48 13 -43 -1 4 -9 1 -13 -6
-10 -7 2 -12 10 -10 16 1 6 -6 14 -15 17 -10 3 -40 15 -66 26 -27 11 -55 17
-63 14 -8 -3 -14 -1 -14 4 0 6 -59 39 -131 76 -101 50 -129 68 -120 77 9 9 15
8 23 -6 9 -17 11 -17 28 -2 10 9 24 14 29 10 6 -3 11 -1 11 4 0 6 8 11 17 11
16 0 16 2 2 15 -10 11 -36 16 -77 17 -34 1 -62 5 -62 10 0 5 -4 7 -8 4 -15 -9
-31 9 -22 24 8 13 10 13 10 -1 0 -11 8 -15 28 -14 56 4 58 5 38 17 -15 8 -21
8 -24 0 -2 -7 -8 -12 -13 -12 -6 0 -7 6 -3 13 4 6 4 9 -1 5 -4 -4 -14 -3 -21
3 -16 13 -48 4 -39 -11 3 -5 -1 -10 -11 -10 -13 0 -14 3 -4 15 14 17 17 15
-63 36 -40 10 -50 10 -57 -1 -4 -7 -13 -9 -20 -5 -9 6 -9 10 1 16 19 13 -9 31
-35 23 -12 -4 -16 -2 -12 5 5 7 -4 14 -24 18 -18 3 -34 12 -37 19 -3 8 -9 14
-15 14 -15 0 -147 101 -260 198 -227 196 -587 598 -573 641 5 16 2 18 -15 14
-11 -3 -20 -1 -21 3 -1 5 -2 22 -4 39 -1 16 -7 31 -14 33 -6 2 -11 9 -11 16 0
7 -9 21 -19 30 -11 10 -17 24 -14 32 7 18 -26 31 -37 15 -5 -9 -9 -8 -14 4 -4
11 0 22 11 30 15 12 15 14 -9 36 -36 35 -61 77 -55 93 3 8 -1 17 -9 20 -8 3
-14 9 -13 13 1 4 0 11 -1 16 -1 4 -3 10 -4 15 -4 22 -30 72 -37 72 -5 0 -9 6
-9 14 0 8 -23 65 -51 127 -58 128 -71 162 -135 339 -25 69 -56 154 -70 190
-13 36 -24 71 -24 78 0 7 -5 10 -11 6 -6 -4 -10 1 -8 12 4 30 -11 84 -24 84
-8 0 -7 3 1 9 11 7 11 9 -2 14 -8 3 -15 14 -15 24 0 40 -10 113 -16 123 -3 6
-9 22 -11 37 -3 14 -10 36 -16 47 -7 12 -11 31 -9 44 1 12 -2 22 -7 22 -6 0
-8 9 -5 20 3 11 0 20 -6 20 -5 0 -8 7 -5 15 4 8 1 15 -6 15 -7 0 -10 7 -6 16
3 9 3 20 0 26 -4 6 -8 35 -11 66 -2 31 -7 61 -12 67 -4 5 -6 20 -5 32 0 13 -2
23 -7 23 -4 0 -8 15 -7 33 0 17 -4 46 -10 62 -6 17 -15 54 -20 84 -8 47 -7 52
4 36 8 -10 14 -33 14 -51 0 -31 23 -53 35 -33 4 5 1 8 -6 7 -6 -2 -13 9 -16
25 -2 15 0 27 5 27 4 0 9 16 10 35 2 20 -2 35 -8 35 -7 0 -10 22 -8 60 2 33 6
60 10 60 13 0 17 36 8 74 -5 25 -5 47 1 58 7 13 7 23 0 32 -11 13 -11 126 -1
126 4 0 6 56 6 125 -1 97 -4 125 -14 125 -9 0 -13 -12 -11 -38 2 -21 0 -43 -5
-50 -4 -6 -7 -66 -8 -132 0 -66 -4 -120 -9 -120 -5 0 -9 -5 -9 -11 0 -5 5 -7
11 -3 8 4 9 -1 4 -17 -10 -31 -11 -33 -28 -26 -7 3 -18 21 -24 40 -10 32 -9
38 11 51 15 11 16 14 3 10 -15 -5 -17 1 -17 43 0 27 3 53 7 57 4 4 8 21 10 39
6 76 29 225 41 271 8 29 32 49 32 26 0 -6 -5 -8 -10 -5 -7 4 -9 -7 -6 -32 3
-23 0 -40 -7 -45 -9 -6 -9 -8 0 -8 7 0 10 -6 7 -14 -3 -8 -1 -17 4 -20 5 -3
13 11 17 31 5 27 9 33 16 22 7 -12 9 -11 9 3 0 9 -4 20 -10 23 -12 8 -13 45
-1 45 13 0 19 46 9 64 -6 10 -5 16 2 16 7 0 9 13 5 37 -3 22 -1 39 6 43 6 4
11 28 11 54 1 25 5 46 10 46 4 0 8 10 8 23 0 13 11 52 25 87 25 63 33 97 16
72 -6 -10 -10 -8 -14 9 -4 13 -1 26 6 31 6 4 9 10 5 13 -3 3 8 19 24 36 25 24
28 32 17 45 -10 12 -9 20 8 42 11 15 23 45 26 67 4 22 4 34 1 28 -4 -10 -10
-9 -21 3 -14 13 -14 17 -2 25 8 5 17 9 22 9 4 0 7 6 7 14 0 27 30 71 52 78
l23 6 -22 1 c-24 1 -33 31 -10 31 8 0 7 3 -3 10 -16 10 -8 22 18 26 48 6 60
16 64 52 3 21 0 40 -6 44 -6 4 -4 9 7 14 9 3 17 14 17 23 0 9 8 21 18 28 11 6
27 27 36 47 9 20 22 36 28 36 9 0 8 4 -1 13 -10 10 -15 8 -27 -7 -8 -11 -14
-15 -14 -9 0 7 -8 13 -18 15 -9 3 2 8 26 12 27 5 42 13 42 22 0 8 6 14 12 13
7 -1 26 -1 42 0 24 1 27 3 16 16 -7 8 -19 15 -27 15 -12 0 -13 3 -3 15 8 9 22
12 42 8 28 -5 30 -4 23 16 -4 15 -2 23 10 27 10 4 13 13 10 25 -4 11 -2 19 4
19 6 0 11 9 11 20 0 11 4 20 10 20 5 0 9 3 8 8 -4 22 51 105 73 108 5 1 13 2
18 3 6 0 9 9 8 19 -2 31 25 84 39 78 16 -6 19 20 4 29 -17 10 21 40 47 37 18
-3 23 1 23 20 -1 22 -1 22 -15 4 -19 -25 -30 -15 -15 13 6 13 21 21 36 21 17
0 27 8 34 25 5 14 14 25 20 25 5 0 10 7 10 15 0 8 -7 15 -16 15 -9 0 -14 6
-11 13 4 12 8 14 52 16 28 1 34 30 11 54 -12 11 -11 15 6 26 10 6 28 9 38 6
10 -3 21 -1 25 5 3 5 3 10 -2 10 -4 0 -13 11 -19 24 -10 21 -9 25 10 30 18 5
19 8 6 16 -12 7 -8 10 15 10 23 0 27 3 15 10 -13 8 -13 10 2 10 9 0 20 -4 23
-10 13 -20 25 -9 21 20 -2 21 4 38 20 55 13 14 20 25 16 25 -3 0 5 8 18 17 14
10 33 27 43 39 9 13 31 25 47 29 16 4 32 10 35 15 3 4 -4 6 -15 3 -25 -7 -25
2 -1 29 11 11 26 18 34 15 8 -3 21 8 32 29 20 38 27 41 49 18 15 -14 16 -14
16 0 0 9 8 16 20 16 21 0 68 64 73 100 4 26 13 34 27 25 9 -6 9 -9 0 -15 -7
-4 -9 -13 -5 -19 5 -9 10 -9 21 0 7 6 11 16 8 21 -8 12 25 37 49 38 9 0 17 6
17 13 0 8 16 22 35 33 31 17 35 22 30 49 -3 21 -3 24 3 11 8 -17 9 -18 15 -3
4 10 12 14 22 11 14 -6 20 6 16 29 -1 4 5 15 14 23 8 9 15 11 15 5 0 -17 37
-13 44 4 3 8 11 15 17 15 6 0 22 11 35 25 18 19 30 24 49 19 19 -5 25 -2 25
10 0 25 21 43 45 38 27 -5 61 26 46 41 -6 6 -11 18 -11 27 1 13 2 13 13 -1 7
-9 22 -16 33 -15 23 1 54 28 54 46 0 7 7 10 15 6 8 -3 19 2 23 11 6 10 17 14
31 10 14 -3 31 3 49 17 15 13 42 29 60 37 17 8 32 20 32 26 0 8 12 13 29 13
20 0 30 6 34 20 3 13 14 20 29 20 13 0 31 9 41 20 9 11 23 20 30 20 7 0 24 10
37 22 13 13 35 24 49 26 14 2 28 8 32 13 3 5 19 14 35 18 16 5 28 13 27 19 -1
6 19 18 45 28 26 9 51 21 56 25 5 4 14 5 22 2 19 -7 81 15 88 32 3 8 13 11 26
8 14 -4 19 -1 15 8 -4 10 6 15 37 16 24 2 48 9 53 16 6 8 24 14 42 15 17 0 45
8 62 16 16 9 44 16 61 16 17 0 46 6 65 14 18 8 36 12 39 8 3 -3 6 0 6 6 0 7
15 12 35 12 19 0 35 4 35 10 0 5 3 9 8 8 4 -1 16 3 27 8 37 20 140 34 213 28
49 -3 78 -1 88 7 10 8 14 8 14 0 0 -17 21 -13 35 6 13 17 14 17 33 0 20 -18
22 -18 59 -1 21 10 41 22 44 27 4 5 16 3 28 -5 16 -10 23 -10 29 -1 4 7 26 10
55 9 26 -2 44 0 41 5 -3 5 -1 9 5 9 5 0 11 -6 14 -12 3 -10 7 -10 20 1 16 12
44 16 160 19 31 1 46 6 42 12 -4 7 2 9 19 4 15 -3 32 -2 39 4 6 5 28 10 47 10
74 -1 99 2 113 16 10 10 17 12 25 4 12 -12 37 1 37 21 0 16 56 25 66 10 4 -7
9 -4 12 5 5 12 0 16 -22 16 -35 0 -61 9 -61 21 0 5 9 9 21 9 11 0 17 -4 14
-10 -8 -13 5 -13 25 0 13 8 12 10 -2 10 -13 0 -18 8 -18 30 0 17 5 30 10 30 6
0 10 5 10 10 0 6 -10 10 -22 9 -41 -4 -56 1 -62 17 -4 9 -2 22 4 29 9 11 16
11 36 1 32 -17 74 -9 74 15 0 15 8 18 48 18 77 -1 89 1 73 10 -21 13 -6 58 23
65 20 5 23 12 22 43 -1 23 4 38 12 39 6 1 15 3 20 4 4 1 10 2 15 1 4 0 7 4 7
10 0 6 7 9 15 5 8 -3 15 -1 15 3 0 24 -85 15 -117 -11 -9 -7 -13 -7 -13 1 0 7
-4 10 -9 6 -5 -3 -12 -1 -15 4 -3 5 -22 12 -41 15 -19 4 -35 11 -35 15 0 17
56 45 87 44 19 -1 34 5 37 13 3 8 19 14 36 14 25 0 30 4 30 25 0 14 4 25 9 25
5 0 12 11 15 24 3 13 15 26 26 29 11 3 20 12 20 21 0 11 9 16 28 16 16 0 32
-3 35 -6 9 -9 141 -12 147 -3 3 4 14 9 25 11 35 6 75 58 75 98 0 23 -32 63
-55 70 -5 2 -29 14 -52 27 -23 12 -53 23 -67 23 -13 0 -37 5 -53 12 -38 15
-41 16 -97 28 -28 5 -52 14 -56 19 -9 15 -60 25 -60 12 0 -6 -7 -11 -16 -11
-11 0 -14 5 -10 16 4 11 1 14 -12 13 -9 -2 -27 0 -39 4 -59 18 -63 18 -63 3 0
-9 -5 -16 -11 -16 -6 0 -9 7 -5 15 7 19 -3 19 -24 0 -16 -14 -21 -14 -51 4
-37 21 -136 34 -146 18 -3 -5 -8 -5 -12 2 -11 18 -220 43 -257 31 -25 -9 -40
-8 -67 3 -20 9 -40 11 -48 7 -7 -5 -21 -3 -33 6 -25 17 -115 19 -151 2 -19 -9
-28 -9 -37 0 -12 12 -69 14 -115 5z m14 -65 c-3 -8 -6 -5 -6 6 -1 11 2 17 5
13 3 -3 4 -12 1 -19z m798 -8 c-3 -5 -11 -10 -16 -10 -6 0 -7 5 -4 10 3 6 11
10 16 10 6 0 7 -4 4 -10z m-1657 -68 c2 -7 -2 -10 -12 -6 -9 3 -16 11 -16 16
0 13 23 5 28 -10z m312 -12 c0 -4 -11 -7 -25 -7 -26 0 -34 12 -12 20 15 5 37
-2 37 -13z m-180 -30 c0 -5 -5 -10 -11 -10 -5 0 -7 5 -4 10 3 6 8 10 11 10 2
0 4 -4 4 -10z m-130 -50 c0 -5 -5 -10 -11 -10 -5 0 -7 5 -4 10 3 6 8 10 11 10
2 0 4 -4 4 -10z m-311 -49 c7 -5 10 -14 7 -20 -11 -17 -23 -13 -29 9 -6 22 0
25 22 11z m-70 -40 c7 -5 9 -11 4 -14 -6 -4 -19 0 -29 8 -15 11 -16 14 -4 15
8 0 21 -4 29 -9z m-79 -21 c0 -5 -2 -10 -4 -10 -3 0 -8 5 -11 10 -3 6 -1 10 4
10 6 0 11 -4 11 -10z m-140 -4 c0 -3 -4 -8 -10 -11 -5 -3 -10 -1 -10 4 0 6 5
11 10 11 6 0 10 -2 10 -4z m-140 -56 c0 -5 -4 -10 -10 -10 -5 0 -10 5 -10 10
0 6 5 10 10 10 6 0 10 -4 10 -10z m62 -72 c-7 -7 -12 -8 -12 -2 0 14 12 26 19
19 2 -3 -1 -11 -7 -17z m-82 -8 c0 -5 -2 -10 -4 -10 -3 0 -8 5 -11 10 -3 6 -1
10 4 10 6 0 11 -4 11 -10z m53 3 c-7 -2 -21 -2 -30 0 -10 3 -4 5 12 5 17 0 24
-2 18 -5z m-223 -64 c0 -16 -5 -20 -27 -17 -16 2 -26 7 -23 13 3 5 13 8 23 7
9 -2 17 2 17 7 0 6 2 11 5 11 3 0 5 -9 5 -21z m37 -15 c-3 -3 -12 -4 -19 -1
-8 3 -5 6 6 6 11 1 17 -2 13 -5z m-292 -14 c3 -5 2 -10 -4 -10 -5 0 -13 5 -16
10 -3 6 -2 10 4 10 5 0 13 -4 16 -10z m125 -6 c0 -2 -7 -4 -15 -4 -8 0 -15 4
-15 10 0 5 7 7 15 4 8 -4 15 -8 15 -10z m60 -4 c0 -5 -4 -10 -10 -10 -5 0 -10
5 -10 10 0 6 5 10 10 10 6 0 10 -4 10 -10z m30 -10 c0 -5 -2 -10 -4 -10 -3 0
-8 5 -11 10 -3 6 -1 10 4 10 6 0 11 -4 11 -10z m2750 -5 c0 -8 -6 -15 -14 -15
-17 0 -28 14 -19 24 12 12 33 6 33 -9z m-2930 -5 c0 -5 -5 -10 -11 -10 -5 0
-7 5 -4 10 3 6 8 10 11 10 2 0 4 -4 4 -10z m50 -40 c0 -16 -5 -30 -10 -30 -6
0 -9 12 -6 28 5 33 5 32 11 32 3 0 5 -13 5 -30z m-24 7 c4 -4 2 -7 -4 -7 -6 0
-10 -9 -9 -20 1 -11 7 -20 14 -20 7 0 13 -7 13 -15 0 -18 -5 -18 -30 -5 -14 7
-20 6 -25 -7 -5 -15 -8 -15 -15 -3 -7 12 -13 12 -37 0 -15 -7 -31 -13 -35 -12
-5 1 -8 -2 -8 -8 0 -5 -14 -10 -31 -10 -22 0 -32 -5 -36 -20 -6 -23 -23 -27
-23 -5 0 17 -2 18 -24 9 -9 -3 -16 -12 -16 -20 0 -8 -9 -14 -19 -14 -11 0 -23
-4 -26 -10 -4 -6 5 -10 21 -10 54 0 16 -10 -45 -12 -50 -2 -59 -4 -47 -14 9
-6 16 -16 16 -22 0 -6 6 -13 13 -16 6 -3 0 -4 -15 -1 -15 3 -28 0 -30 -7 -2
-6 -24 -12 -49 -12 -27 -1 -46 -6 -46 -13 0 -6 6 -9 14 -6 7 3 13 0 13 -6 0
-18 -39 -51 -60 -51 -11 0 -23 -7 -26 -15 -8 -19 -21 -19 -39 -1 -12 11 -11
19 3 50 10 22 22 34 29 32 7 -3 13 -1 13 5 0 6 6 9 14 6 8 -3 17 1 20 9 3 8
17 14 31 14 18 0 25 5 25 20 0 12 7 20 17 20 15 0 14 2 -3 15 -17 13 -16 14
19 8 24 -4 37 -2 37 6 0 6 -4 11 -10 11 -5 0 -10 4 -10 8 0 4 15 9 33 10 49 4
67 11 60 28 -4 11 4 14 32 14 31 0 35 2 26 14 -13 16 4 26 44 26 14 0 25 7 27
18 4 15 12 18 37 14 23 -3 31 0 31 11 0 9 8 17 18 19 28 6 91 3 98 -5z m119
-7 c3 -5 1 -10 -4 -10 -6 0 -11 5 -11 10 0 6 2 10 4 10 3 0 8 -4 11 -10z
m1715 0 c0 -5 -2 -10 -4 -10 -3 0 -8 5 -11 10 -3 6 -1 10 4 10 6 0 11 -4 11
-10z m63 -11 c-8 -8 -16 -8 -30 0 -16 9 -14 10 12 11 21 0 26 -3 18 -11z
m-1852 -26 c-8 -15 -10 -15 -11 -2 0 17 10 32 18 25 2 -3 -1 -13 -7 -23z
m1664 7 c-3 -5 -11 -10 -16 -10 -6 0 -7 5 -4 10 3 6 11 10 16 10 6 0 7 -4 4
-10z m-241 -55 c4 -10 -1 -15 -15 -15 -17 0 -18 2 -7 15 16 18 15 18 22 0z
m-1617 -102 c-3 -10 -5 -4 -5 12 0 17 2 24 5 18 2 -7 2 -21 0 -30z m-27 17 c0
-5 -5 -10 -11 -10 -5 0 -7 5 -4 10 3 6 8 10 11 10 2 0 4 -4 4 -10z m3049 -29
c-15 -5 -22 6 -14 19 6 9 10 9 16 -1 5 -8 4 -15 -2 -18z m-3079 3 c0 -8 -5
-12 -10 -9 -6 4 -8 11 -5 16 9 14 15 11 15 -7z m2935 6 c-3 -5 -14 -10 -23 -9
-14 0 -13 2 3 9 27 11 27 11 20 0z m-2965 -32 c0 -6 -7 -7 -16 -4 -9 3 -20 6
-25 6 -6 0 -8 4 -5 9 8 12 46 2 46 -11z m2820 12 c0 -5 -4 -10 -10 -10 -5 0
-10 5 -10 10 0 6 5 10 10 10 6 0 10 -4 10 -10z m30 -15 c0 -8 -4 -15 -10 -15
-5 0 -7 7 -4 15 4 8 8 15 10 15 2 0 4 -7 4 -15z m-2913 -21 c-9 -9 -28 6 -21
18 4 6 10 6 17 -1 6 -6 8 -13 4 -17z m2583 5 c0 -18 -5 -20 -52 -17 -33 2 -53
8 -56 17 -3 10 2 12 19 8 13 -3 35 -8 49 -11 14 -4 19 -4 12 0 -15 7 -6 24 14
24 8 0 14 -9 14 -21z m44 5 c5 -12 2 -15 -10 -10 -8 3 -18 6 -20 6 -3 0 -2 5
1 10 9 15 22 12 29 -6z m76 6 c0 -5 -4 -10 -10 -10 -5 0 -10 5 -10 10 0 6 5
10 10 10 6 0 10 -4 10 -10z m-360 -15 c0 -8 -7 -15 -15 -15 -26 0 -18 20 13
29 1 1 2 -6 2 -14z m640 -6 c0 -5 -8 -9 -18 -9 -10 0 -19 6 -19 14 0 8 8 11
19 8 10 -2 18 -8 18 -13z m-1776 -14 c-15 -14 -33 -25 -40 -25 -7 0 -14 -6
-17 -12 -2 -7 -8 -10 -12 -6 -15 14 5 40 25 35 13 -3 20 0 20 8 0 14 15 23 38
24 7 1 1 -10 -14 -24z m63 19 c-3 -3 -12 -4 -19 -1 -8 3 -5 6 6 6 11 1 17 -2
13 -5z m1588 -22 c-8 -8 -25 10 -19 20 4 6 9 5 15 -3 4 -7 6 -15 4 -17z m-407
-38 c-8 -8 -48 32 -48 48 0 7 12 0 27 -14 15 -15 24 -30 21 -34z m212 42 c0
-20 -7 -23 -62 -31 -29 -4 -48 -3 -48 2 0 5 13 10 29 10 16 0 37 7 46 16 20
21 35 22 35 3z m-397 -28 c-5 -27 -33 -40 -33 -16 0 11 31 51 36 46 1 -2 0
-15 -3 -30z m531 21 c-3 -5 -16 -9 -30 -9 -14 0 -23 4 -20 9 3 5 17 9 31 9 13
0 22 -4 19 -9z m-2864 -9 c0 -5 -4 -10 -9 -10 -5 0 -16 -3 -25 -6 -9 -3 -16
-1 -16 4 0 9 16 17 43 21 4 0 7 -3 7 -9z m2283 -21 c-7 -7 -19 -8 -30 -4 -17
8 -17 8 0 12 9 3 17 10 17 16 0 8 4 7 12 -1 9 -9 9 -15 1 -23z m102 11 c-3 -5
-10 -10 -16 -10 -5 0 -9 5 -9 10 0 6 7 10 16 10 8 0 12 -4 9 -10z m-1205 -7
c0 -12 -52 -33 -63 -26 -5 3 1 12 14 19 27 15 49 18 49 7z m900 -3 c0 -5 -7
-10 -15 -10 -8 0 -15 5 -15 10 0 6 7 10 15 10 8 0 15 -4 15 -10z m124 -7 c6
-15 8 -15 16 -3 7 11 9 9 7 -8 -1 -20 -5 -22 -37 -18 -19 3 -39 5 -44 6 -13 0
26 39 40 39 7 1 15 -7 18 -16z m-78 -28 c-5 -15 -51 -20 -80 -9 -30 12 -6 21
34 14 21 -4 37 -3 34 1 -3 5 -2 14 2 21 10 16 18 -6 10 -27z m-108 -5 c10 -16
10 -20 -1 -20 -6 0 -18 9 -25 20 -10 16 -10 20 1 20 6 0 18 -9 25 -20z m-923
-10 c3 -5 -1 -10 -9 -10 -9 0 -16 5 -16 10 0 6 4 10 9 10 6 0 13 -4 16 -10z
m782 -27 c-2 -36 -4 -38 -35 -38 -18 0 -37 -7 -42 -15 -8 -12 -10 -9 -10 13 0
16 5 27 14 27 7 0 25 11 40 25 15 14 29 25 31 25 2 0 3 -17 2 -37z m59 12 c19
19 51 19 51 1 0 -13 -76 -41 -85 -31 -2 2 0 14 4 27 6 19 9 20 12 6 3 -16 5
-16 18 -3z m-172 -6 c-3 -6 0 -15 7 -20 11 -7 10 -9 -3 -9 -11 0 -18 8 -18 20
0 11 5 20 11 20 5 0 7 -5 3 -11z m-2054 -9 c0 -5 -9 -10 -20 -10 -11 0 -20 5
-20 10 0 6 9 10 20 10 11 0 20 -4 20 -10z m50 0 c0 -5 -7 -10 -15 -10 -8 0
-15 5 -15 10 0 6 7 10 15 10 8 0 15 -4 15 -10z m1250 -5 c0 -8 -6 -15 -14 -15
-8 0 -21 -3 -30 -6 -25 -9 -19 12 7 24 31 15 37 14 37 -3z m-1115 -5 c3 -5 -1
-10 -9 -10 -9 0 -16 5 -16 10 0 6 4 10 9 10 6 0 13 -4 16 -10z m-186 -26 c11
-10 -10 -16 -21 -6 -9 7 -17 6 -25 -4 -10 -10 -10 -15 4 -23 10 -5 14 -13 10
-17 -4 -5 -18 -2 -30 5 -15 10 -22 10 -25 2 -2 -6 -8 -11 -13 -11 -6 0 -7 4
-4 10 3 6 -1 7 -9 4 -9 -3 -16 -1 -16 5 0 26 107 55 129 35z m1968 10 c-3 -3
-12 -4 -19 -1 -8 3 -5 6 6 6 11 1 17 -2 13 -5z m83 -15 c0 -5 -11 -9 -25 -9
-26 0 -34 15 -12 23 16 5 37 -3 37 -14z m-1966 -14 c-4 -8 -12 -15 -20 -15
-20 0 -17 18 4 23 9 3 18 5 19 6 1 0 0 -6 -3 -14z m1836 -5 c13 -8 12 -11 -5
-24 -11 -9 -29 -15 -40 -15 -19 0 -19 0 -2 13 9 7 17 18 17 25 0 13 10 14 30
1z m50 -10 c0 -5 -4 -10 -9 -10 -6 0 -13 5 -16 10 -3 6 1 10 9 10 9 0 16 -4
16 -10z m-2116 -74 c-9 -30 -14 -32 -25 -16 -9 13 -10 12 -6 -2 3 -9 1 -19 -6
-22 -7 -2 -4 -5 6 -5 30 -2 18 -21 -14 -21 -19 0 -28 4 -23 11 3 6 0 15 -7 20
-11 6 -10 9 3 14 9 4 14 13 11 21 -3 8 4 17 18 23 34 12 51 3 43 -23z m2886
24 c0 -5 -7 -10 -15 -10 -8 0 -15 5 -15 10 0 6 7 10 15 10 8 0 15 -4 15 -10z
m-1055 -40 c3 -5 2 -10 -4 -10 -5 0 -13 5 -16 10 -3 6 -2 10 4 10 5 0 13 -4
16 -10z m-1805 -10 c0 -5 -4 -10 -10 -10 -5 0 -10 5 -10 10 0 6 5 10 10 10 6
0 10 -4 10 -10z m65 0 c3 -5 -1 -10 -10 -10 -9 0 -13 5 -10 10 3 6 8 10 10 10
2 0 7 -4 10 -10z m-35 -45 c0 -7 -9 -15 -20 -18 -11 -3 -17 -1 -14 4 3 5 -2
12 -10 15 -24 9 -10 22 19 16 14 -2 25 -10 25 -17z m-190 5 c0 -5 -2 -10 -4
-10 -3 0 -8 5 -11 10 -3 6 -1 10 4 10 6 0 11 -4 11 -10z m17 -22 c-3 -8 -6 -5
-6 6 -1 11 2 17 5 13 3 -3 4 -12 1 -19z m78 -8 c3 -5 -1 -10 -10 -10 -9 0 -13
5 -10 10 3 6 8 10 10 10 2 0 7 -4 10 -10z m-72 -56 c30 -11 19 -27 -15 -20
-17 3 -33 8 -36 10 -8 9 10 27 21 22 7 -4 20 -9 30 -12z m-173 -44 c0 -5 -5
-10 -11 -10 -5 0 -7 5 -4 10 3 6 8 10 11 10 2 0 4 -4 4 -10z m2 -45 c4 -17 0
-29 -11 -35 -13 -7 -10 -9 12 -10 16 0 26 -4 22 -10 -3 -5 -15 -10 -26 -10
-10 0 -28 -5 -38 -12 -10 -6 -26 -8 -35 -5 -25 10 -19 42 10 55 14 7 22 17 19
22 -9 15 3 30 24 30 12 0 20 -9 23 -25z m1128 15 c0 -5 -4 -10 -10 -10 -5 0
-10 5 -10 10 0 6 5 10 10 10 6 0 10 -4 10 -10z m-1037 -7 c-7 -2 -19 -2 -25 0
-7 3 -2 5 12 5 14 0 19 -2 13 -5z m17 -35 c0 -5 -5 -8 -11 -8 -6 0 -9 -7 -5
-15 4 -10 -1 -15 -14 -15 -11 0 -20 7 -20 15 0 8 -4 15 -10 15 -5 0 -10 4 -10
10 0 5 16 9 35 7 19 -1 35 -5 35 -9z m913 -41 c-7 -11 -23 2 -23 19 0 12 2 12
14 2 8 -7 12 -16 9 -21z m-1095 -35 c19 -2 44 1 57 8 13 7 31 10 40 6 14 -5
14 -8 -2 -25 -24 -25 -61 -35 -78 -21 -16 13 -29 -3 -30 -35 0 -16 -6 -19 -27
-17 -14 2 -29 -2 -33 -7 -3 -6 1 -11 9 -11 8 0 17 -4 21 -9 3 -6 -8 -8 -28 -4
-30 4 -40 0 -78 -36 -36 -35 -41 -44 -29 -52 11 -8 8 -9 -12 -5 -22 5 -26 3
-22 -9 4 -8 12 -15 20 -15 8 0 14 -6 14 -14 0 -10 -11 -12 -47 -8 -40 4 -45 3
-40 -11 7 -18 -30 -60 -45 -51 -4 3 -8 -1 -8 -9 0 -8 -7 -18 -16 -21 -9 -4
-14 -9 -10 -13 3 -3 15 2 27 12 17 16 22 17 29 5 13 -21 -17 -37 -72 -39 -42
-1 -48 1 -48 19 0 11 5 20 10 20 6 0 10 -4 10 -10 0 -5 4 -10 9 -10 5 0 8 8 7
18 0 9 5 16 12 15 11 -3 17 10 13 30 -1 5 8 11 19 14 11 3 20 14 20 24 0 12
10 21 25 25 19 5 24 11 20 25 -4 13 -1 19 9 19 9 0 16 6 16 14 0 7 9 16 20 19
13 3 18 10 14 21 -4 11 -1 16 10 16 10 0 16 8 16 21 0 19 4 21 30 15 28 -5 30
-4 19 15 -9 17 -7 21 9 25 10 3 26 19 36 35 13 22 23 28 34 23 10 -4 32 -9 50
-12z m22 -95 c0 -7 -86 -97 -92 -97 -10 0 14 41 41 73 20 22 51 37 51 24z
m806 -64 c-10 -10 -19 5 -10 18 6 11 8 11 12 0 2 -7 1 -15 -2 -18z m-921 -33
c3 -5 2 -10 -4 -10 -5 0 -13 5 -16 10 -3 6 -2 10 4 10 5 0 13 -4 16 -10z m-80
-88 c-11 -2 -25 -12 -32 -21 -8 -10 -12 -12 -13 -3 0 6 -7 12 -15 12 -21 0
-19 18 3 22 9 2 31 1 47 -1 23 -4 25 -6 10 -9z m-56 -72 c0 -12 -2 -11 -10 3
-5 9 -17 17 -24 17 -21 0 -19 18 3 22 17 4 30 -14 31 -42z m-19 -40 c0 -5 -6
-10 -14 -10 -8 0 -18 5 -21 10 -3 6 3 10 14 10 12 0 21 -4 21 -10z m-73 -7
c-4 -3 1 -12 11 -20 15 -12 14 -13 -9 -7 -16 3 -30 1 -34 -7 -5 -8 -4 -10 3
-5 7 4 12 3 12 -3 0 -6 -10 -13 -22 -15 -13 -3 -35 -7 -50 -11 -17 -3 -28 -1
-28 6 0 6 -7 4 -15 -5 -17 -17 -20 -46 -5 -46 6 0 10 -4 10 -9 0 -6 -9 -9 -19
-8 -20 1 -37 37 -22 47 4 3 11 12 15 20 19 41 33 57 46 55 12 -2 91 8 109 14
2 0 1 -2 -2 -6z m-17 -103 c0 -5 -5 -10 -11 -10 -5 0 -7 5 -4 10 3 6 8 10 11
10 2 0 4 -4 4 -10z m-242 -12 c17 -17 15 -24 -8 -25 -22 -2 -34 12 -25 27 8
13 18 13 33 -2z m162 -8 c0 -5 -4 -10 -10 -10 -5 0 -10 5 -10 10 0 6 5 10 10
10 6 0 10 -4 10 -10z m-80 -30 c0 -5 -6 -13 -13 -17 -7 -4 -19 -23 -26 -40 -9
-22 -20 -33 -33 -33 -15 0 -18 4 -12 23 8 25 24 38 38 30 5 -4 6 -1 2 6 -5 7
0 18 10 26 22 17 34 19 34 5z m60 -4 c0 -7 -9 -16 -20 -19 -13 -3 -20 0 -20 8
0 8 8 16 18 18 9 3 18 5 20 6 1 0 2 -5 2 -13z m7 -58 c-3 -8 -6 -5 -6 6 -1 11
2 17 5 13 3 -3 4 -12 1 -19z m-237 -24 c0 -8 -4 -12 -10 -9 -5 3 -10 13 -10
21 0 8 5 12 10 9 6 -3 10 -13 10 -21z m201 1 c5 4 9 -1 9 -9 0 -10 -9 -16 -25
-16 -26 0 -29 7 -19 35 6 16 8 16 16 1 5 -9 13 -14 19 -11z m-51 -5 c0 -5 -4
-10 -10 -10 -5 0 -10 5 -10 10 0 6 5 10 10 10 6 0 10 -4 10 -10z m-10 -30 c0
-5 -2 -10 -4 -10 -3 0 -8 5 -11 10 -3 6 -1 10 4 10 6 0 11 -4 11 -10z m-30
-33 c12 -4 11 -6 -2 -6 -10 -1 -18 -5 -18 -11 0 -19 -18 -10 -23 12 -8 28 2
43 16 25 7 -8 19 -17 27 -20z m-63 -34 c-3 -10 -5 -2 -5 17 0 19 2 27 5 18 2
-10 2 -26 0 -35z m-17 11 c0 -8 -5 -12 -10 -9 -6 4 -8 11 -5 16 9 14 15 11 15
-7z m-23 -48 c-3 -7 0 -19 6 -25 8 -8 8 -11 0 -11 -13 0 -25 28 -17 41 8 14
17 11 11 -5z m73 -17 c0 -5 -6 -6 -13 -3 -8 3 -14 11 -14 19 0 11 4 12 14 4 7
-6 13 -15 13 -20z m-45 -38 c3 -5 1 -12 -5 -16 -5 -3 -10 1 -10 9 0 18 6 21
15 7z m-72 -53 c-13 -12 -26 -19 -29 -15 -4 4 1 14 12 22 29 22 41 18 17 -7z
m-88 2 c-3 -5 -13 -10 -21 -10 -8 0 -14 5 -14 10 0 6 9 10 21 10 11 0 17 -4
14 -10z m142 4 c-3 -3 -12 -4 -19 -1 -8 3 -5 6 6 6 11 1 17 -2 13 -5z m-37
-55 c0 -5 -6 -9 -12 -9 -10 0 -10 -2 0 -9 10 -6 10 -10 -2 -20 -16 -14 -32 1
-20 20 3 6 1 15 -6 19 -7 5 -2 8 14 8 14 0 26 -4 26 -9z m-53 -44 c8 -24 -3
-29 -27 -12 -15 11 -18 16 -8 20 22 9 28 8 35 -8z m-67 -45 c-19 -13 -30 -13
-30 0 0 6 10 10 23 10 18 0 19 -2 7 -10z m46 -35 c-19 -14 -36 -12 -36 6 0 5
12 9 28 9 26 -1 26 -1 8 -15z m-156 -19 c0 -16 -18 -31 -27 -22 -8 8 5 36 17
36 5 0 10 -6 10 -14z m45 -16 c3 -5 1 -10 -4 -10 -6 0 -11 5 -11 10 0 6 2 10
4 10 3 0 8 -4 11 -10z m73 -1 c-2 -6 -7 -10 -11 -10 -4 1 -16 1 -27 1 -11 0
-20 5 -20 10 0 6 14 10 31 10 17 0 29 -5 27 -11z m-28 -40 c0 -6 -4 -7 -10 -4
-5 3 -10 11 -10 16 0 6 5 7 10 4 6 -3 10 -11 10 -16z m-10 -59 c0 -13 -1 -13
-10 0 -5 8 -10 22 -10 30 0 13 1 13 10 0 5 -8 10 -22 10 -30z m-85 -50 c3 -5
-1 -10 -9 -10 -9 0 -16 5 -16 10 0 6 4 10 9 10 6 0 13 -4 16 -10z m-105 -40
c0 -5 -4 -10 -10 -10 -5 0 -10 5 -10 10 0 6 5 10 10 10 6 0 10 -4 10 -10z
m110 -28 c0 -13 -12 -22 -22 -16 -10 6 -1 24 13 24 5 0 9 -4 9 -8z m1240 -21
c0 -6 -4 -13 -10 -16 -5 -3 -10 1 -10 9 0 9 5 16 10 16 6 0 10 -4 10 -9z
m-1357 -81 c-4 -14 -14 -20 -32 -20 l-26 1 24 19 c30 25 41 25 34 0z m22 -30
c3 -5 1 -10 -4 -10 -6 0 -11 5 -11 10 0 6 2 10 4 10 3 0 8 -4 11 -10z m33 -52
c-5 -15 -23 -11 -26 6 -2 11 2 14 13 10 9 -4 14 -11 13 -16z m-28 -38 c0 -5
-9 -10 -20 -10 -11 0 -20 5 -20 10 0 6 9 10 20 10 11 0 20 -4 20 -10z m1100
-123 c0 -17 -34 -49 -43 -41 -7 8 22 54 34 54 5 0 9 -6 9 -13z m-1205 -87 c3
-5 -1 -10 -9 -10 -9 0 -16 5 -16 10 0 6 4 10 9 10 6 0 13 -4 16 -10z m1112
-36 c-3 -3 -12 -4 -19 -1 -8 3 -5 6 6 6 11 1 17 -2 13 -5z m-1277 -164 c0 -5
-5 -10 -11 -10 -5 0 -7 5 -4 10 3 6 8 10 11 10 2 0 4 -4 4 -10z m1135 -80 c3
-5 1 -10 -4 -10 -6 0 -11 5 -11 10 0 6 2 10 4 10 3 0 8 -4 11 -10z m-1215 -90
c0 -5 -2 -10 -4 -10 -3 0 -8 5 -11 10 -3 6 -1 10 4 10 6 0 11 -4 11 -10z m-70
-250 c0 -5 -5 -10 -11 -10 -5 0 -7 5 -4 10 3 6 8 10 11 10 2 0 4 -4 4 -10z
m-20 -196 c0 -8 -4 -12 -10 -9 -5 3 -10 10 -10 16 0 5 5 9 10 9 6 0 10 -7 10
-16z m9650 -124 c0 -5 -4 -10 -10 -10 -5 0 -10 5 -10 10 0 6 5 10 10 10 6 0
10 -4 10 -10z m-8744 -996 c-4 -9 -1 -23 5 -30 9 -11 8 -14 -4 -14 -8 0 -17 6
-20 13 -6 17 4 47 15 47 6 0 7 -7 4 -16z m9 -106 c-1 -13 -3 -32 -4 -42 -1
-22 -14 -14 -18 12 -3 22 6 52 16 52 5 0 7 -10 6 -22z m12 -460 c-3 -8 -6 -5
-6 6 -1 11 2 17 5 13 3 -3 4 -12 1 -19z m-1087 -138 c0 -5 -4 -10 -10 -10 -5
0 -10 5 -10 10 0 6 5 10 10 10 6 0 10 -4 10 -10z m9760 -770 c0 -5 -4 -10 -10
-10 -5 0 -10 5 -10 10 0 6 5 10 10 10 6 0 10 -4 10 -10z m-130 -360 c0 -5 -2
-10 -4 -10 -3 0 -8 5 -11 10 -3 6 -1 10 4 10 6 0 11 -4 11 -10z m-9076 -345
c3 -8 1 -15 -3 -15 -5 0 -11 7 -15 15 -3 8 -1 15 3 15 5 0 11 -7 15 -15z m75
-100 c20 -39 43 -81 52 -95 9 -14 31 -52 49 -85 17 -33 37 -67 44 -75 7 -8 18
-26 24 -40 20 -42 92 -149 209 -312 35 -50 57 -88 50 -88 -12 0 -177 210 -177
225 0 3 -26 44 -57 91 -70 103 -100 152 -112 180 -5 11 -16 28 -24 36 -9 8
-23 30 -31 49 -9 19 -32 61 -51 94 -35 60 -45 100 -24 93 7 -2 28 -35 48 -73z
m491 -765 c21 -21 26 -40 12 -40 -5 0 -17 9 -27 20 -10 11 -14 20 -9 20 5 0 2
5 -6 10 -10 6 -11 10 -2 10 6 0 21 -9 32 -20z m7770 -8 c0 -8 -24 -35 -55 -60
-23 -20 -19 5 8 38 21 27 47 39 47 22z m-7700 -72 c0 -6 -6 -10 -14 -10 -16 0
-38 24 -30 33 9 8 44 -11 44 -23z m254 -76 c8 -21 -12 -17 -24 6 -8 16 -8 18
4 14 8 -3 17 -12 20 -20z m-214 6 c0 -5 -5 -10 -11 -10 -5 0 -7 5 -4 10 3 6 8
10 11 10 2 0 4 -4 4 -10z m36 -34 c10 -8 15 -18 11 -22 -4 -4 -17 2 -29 14
-25 25 -13 30 18 8z m271 -76 c18 -19 33 -40 33 -46 0 -6 16 -25 35 -43 19
-17 35 -36 35 -43 0 -6 16 -28 36 -50 19 -22 33 -42 30 -45 -8 -8 -36 17 -36
32 0 7 -11 20 -25 29 -14 9 -25 21 -25 27 0 5 -16 23 -35 40 -19 17 -35 37
-35 44 0 7 -18 31 -40 54 -22 22 -40 46 -40 52 0 14 24 -4 67 -51z m-206 -10
c14 0 39 -31 39 -48 0 -11 -14 -2 -40 28 -22 25 -40 54 -40 65 0 15 5 12 16
-12 9 -18 20 -33 25 -33z m126 -127 c55 -57 60 -70 24 -58 -11 3 -22 18 -26
35 -4 18 -13 30 -23 30 -17 0 -52 28 -52 42 0 21 28 3 77 -49z m1403 47 c0 -5
-4 -10 -9 -10 -6 0 -13 5 -16 10 -3 6 1 10 9 10 9 0 16 -4 16 -10z m-1335
-138 c-3 -3 -11 0 -18 7 -9 10 -8 11 6 5 10 -3 15 -9 12 -12z m25 -23 c0 -5 4
-8 9 -5 5 3 14 -1 21 -9 11 -13 8 -13 -19 -4 -29 10 -43 29 -21 29 6 0 10 -5
10 -11z m156 -144 c4 -8 10 -12 15 -9 5 3 9 -2 9 -10 0 -13 -4 -13 -30 2 -33
19 -39 32 -15 32 9 0 18 -7 21 -15z m1846 -83 c-7 -2 -12 -10 -12 -18 0 -8 -6
-13 -12 -11 -26 5 -26 22 0 38 17 10 28 12 31 5 2 -5 -1 -12 -7 -14z m50 -37
c11 -20 11 -20 -11 -1 -11 11 -21 26 -21 35 0 14 2 14 10 1 6 -8 16 -24 22
-35z m58 8 c0 -12 -2 -12 -15 1 -8 8 -15 20 -15 27 0 9 4 8 15 -1 8 -7 15 -19
15 -27z m-1580 17 c0 -5 -4 -10 -10 -10 -5 0 -10 5 -10 10 0 6 5 10 10 10 6 0
10 -4 10 -10z m1900 -62 c0 -6 -7 -7 -16 -4 -9 3 -18 6 -20 6 -3 0 -3 4 1 10
7 11 35 2 35 -12z m-230 -8 c0 -13 -11 -13 -30 0 -12 8 -11 10 8 10 12 0 22
-4 22 -10z m97 -35 c0 -8 -4 -12 -9 -9 -4 3 -8 -2 -8 -12 0 -13 -3 -14 -15 -4
-23 19 -18 40 8 40 14 0 24 -6 24 -15z m73 -40 c0 -8 -7 -15 -15 -15 -8 0 -15
7 -15 15 0 8 7 15 15 15 8 0 15 -7 15 -15z m92 -17 c-9 -9 -12 -7 -12 12 0 19
3 21 12 12 9 -9 9 -15 0 -24z m73 2 c3 -5 -1 -10 -9 -10 -8 0 -18 5 -21 10 -3
6 1 10 9 10 8 0 18 -4 21 -10z m80 -10 c3 -5 2 -10 -4 -10 -5 0 -13 5 -16 10
-3 6 -2 10 4 10 5 0 13 -4 16 -10z m-1 -22 c49 -5 42 -26 -8 -24 -25 0 -41 5
-36 10 5 5 6 16 3 25 -3 10 -2 12 4 4 4 -6 21 -13 37 -15z m2859 -3 c-6 -17
-25 -15 -31 3 -2 7 5 12 17 12 14 0 19 -5 14 -15z m-4158 -5 c-3 -5 -12 -10
-18 -10 -7 0 -6 4 3 10 19 12 23 12 15 0z m1475 -40 c4 0 6 -8 3 -18 -3 -12
-12 -18 -26 -16 -12 1 -32 3 -44 3 -13 1 -23 6 -23 12 0 7 10 9 25 5 14 -4 25
-3 24 1 -3 19 2 25 17 19 9 -3 19 -6 24 -6z m-1410 -4 c0 -2 -7 -7 -16 -10 -8
-3 -12 -2 -9 4 6 10 25 14 25 6z m40 -26 c0 -5 -2 -10 -4 -10 -3 0 -8 5 -11
10 -3 6 -1 10 4 10 6 0 11 -4 11 -10z m1500 -20 c0 -5 -10 -10 -22 -10 -19 0
-20 2 -8 10 19 13 30 13 30 0z m292 -28 c-18 -12 20 -45 42 -36 16 6 46 -11
46 -26 0 -14 -48 -3 -102 25 -16 8 -28 11 -28 6 0 -4 -6 -8 -12 -8 -7 0 -17
-2 -23 -3 -22 -5 -46 1 -40 10 4 6 14 10 23 9 36 -3 48 2 27 12 -17 8 -17 9 5
5 14 -3 32 -1 40 4 8 5 20 10 25 10 6 0 4 -4 -3 -8z m437 -18 c3 -2 -4 -11
-15 -18 -14 -11 -15 -14 -4 -14 34 2 60 -3 60 -11 0 -12 -33 -9 -42 4 -4 6 -8
1 -8 -10 0 -17 -3 -15 -20 10 -27 41 -26 58 3 49 12 -3 24 -8 26 -10z m-2539
-14 c0 -5 -4 -10 -10 -10 -5 0 -10 5 -10 10 0 6 5 10 10 10 6 0 10 -4 10 -10z
m2319 -9 c11 -7 9 -11 -9 -21 -15 -8 -20 -8 -16 -1 4 6 0 11 -8 11 -9 0 -16
-5 -16 -11 0 -5 -5 -7 -11 -3 -8 4 -3 12 12 20 29 16 30 16 48 5z m-89 -21 c0
-5 -4 -10 -9 -10 -6 0 -13 5 -16 10 -3 6 1 10 9 10 9 0 16 -4 16 -10z m188
-12 c-3 -7 -11 -13 -18 -13 -7 0 -15 6 -17 13 -3 7 4 12 17 12 13 0 20 -5 18
-12z m512 2 c0 -5 -2 -10 -4 -10 -3 0 -8 5 -11 10 -3 6 -1 10 4 10 6 0 11 -4
11 -10z m-2830 -4 c0 -3 -4 -8 -10 -11 -5 -3 -10 -1 -10 4 0 6 5 11 10 11 6 0
10 -2 10 -4z m2415 -16 c3 -5 -3 -10 -15 -10 -12 0 -18 5 -15 10 3 6 10 10 15
10 5 0 12 -4 15 -10z m-1928 -6 c-3 -3 -12 -4 -19 -1 -8 3 -5 6 6 6 11 1 17
-2 13 -5z m417 -469 c3 -8 1 -15 -4 -15 -6 0 -10 7 -10 15 0 8 2 15 4 15 2 0
6 -7 10 -15z m133 -67 c-3 -8 -6 -5 -6 6 -1 11 2 17 5 13 3 -3 4 -12 1 -19z
m863 -68 c13 -9 13 -10 0 -10 -8 0 -26 -3 -40 -6 -24 -5 -24 -5 -6 10 23 19
26 19 46 6z m553 -30 c8 0 8 -3 0 -11 -13 -13 -43 -5 -43 12 0 6 7 8 16 5 9
-3 21 -6 27 -6z"/>
<path d="M2799 9498 c-6 -25 -6 -38 1 -38 21 0 40 14 40 28 0 13 -3 12 -16 -4
-8 -10 -13 -14 -10 -7 4 6 2 14 -4 18 -5 3 -10 5 -11 3z"/>
<path d="M2367 9230 c-5 -18 -3 -19 24 -4 35 18 37 24 5 24 -15 0 -26 -7 -29
-20z"/>
<path d="M6070 9591 c0 -13 30 -22 53 -15 16 5 17 8 6 15 -18 11 -59 11 -59 0z"/>
<path d="M5830 9230 c-12 -8 -9 -10 13 -10 16 0 26 4 22 10 -8 12 -16 12 -35
0z"/>
<path d="M8586 8323 c7 -32 38 -63 63 -63 9 0 29 -13 44 -30 16 -16 34 -30 40
-30 6 0 -13 26 -43 57 -101 105 -115 114 -104 66z"/>
<path d="M8755 8160 c3 -5 11 -10 16 -10 6 0 7 5 4 10 -3 6 -11 10 -16 10 -6
0 -7 -4 -4 -10z"/>
<path d="M8831 8076 c2 -2 15 -9 29 -16 23 -12 24 -12 11 3 -7 10 -20 17 -29
17 -8 0 -13 -2 -11 -4z"/>
<path d="M8880 8031 c0 -5 5 -13 10 -16 6 -3 10 -2 10 4 0 5 -4 13 -10 16 -5
3 -10 2 -10 -4z"/>
<path d="M8928 7973 c12 -16 28 -36 37 -43 12 -10 15 -10 15 4 0 10 -4 15 -9
11 -5 -3 -12 4 -16 15 -3 11 -16 25 -27 31 l-21 11 21 -29z"/>
<path d="M8990 7906 c0 -18 26 -55 50 -71 16 -11 27 -22 25 -26 -2 -3 9 -16
26 -28 18 -13 28 -29 25 -37 -6 -17 10 -19 20 -2 4 6 0 16 -9 23 -10 7 -17 15
-17 19 0 4 -18 25 -40 46 -22 21 -40 43 -40 49 0 6 -9 15 -20 21 -11 6 -20 9
-20 6z"/>
<path d="M940 7862 c0 -5 7 -13 16 -16 10 -4 14 -1 12 6 -5 15 -28 23 -28 10z"/>
<path d="M9140 7712 c0 -12 12 -28 29 -38 17 -10 28 -21 25 -25 -5 -9 15 -23
22 -16 8 8 -30 69 -54 85 -20 13 -22 13 -22 -6z"/>
<path d="M1715 6717 c-4 -10 -5 -21 -1 -24 10 -10 18 4 13 24 -4 17 -4 17 -12
0z"/>
<path d="M1400 6031 c0 -25 6 -27 13 -6 4 8 2 17 -3 20 -6 4 -10 -3 -10 -14z"/>
<path d="M10201 4484 c0 -11 3 -14 6 -6 3 7 2 16 -1 19 -3 4 -6 -2 -5 -13z"/>
<path d="M1945 1160 c3 -5 15 -10 26 -10 11 0 17 5 14 10 -3 6 -15 10 -26 10
-11 0 -17 -4 -14 -10z"/>
<path d="M2038 1093 c7 -3 16 -2 19 1 4 3 -2 6 -13 5 -11 0 -14 -3 -6 -6z"/>
<path d="M4413 1063 c9 -2 25 -2 35 0 9 3 1 5 -18 5 -19 0 -27 -2 -17 -5z"/>
<path d="M6546 882 c-2 -4 -1 -14 4 -21 6 -11 10 -9 19 8 10 17 9 21 -3 21 -8
0 -17 -4 -20 -8z"/>
<path d="M6350 850 c-8 -16 -8 -20 2 -18 23 5 39 38 18 38 -5 0 -14 -9 -20
-20z"/>
<path d="M6096 851 c-4 -6 -4 -15 -1 -21 8 -13 55 -13 55 1 0 5 5 7 10 4 6 -3
10 -1 10 4 0 6 -6 11 -12 11 -7 0 -23 3 -34 6 -12 3 -25 1 -28 -5z"/>
<path d="M6200 851 c0 -17 29 -33 49 -26 29 9 14 35 -20 35 -16 0 -29 -4 -29
-9z"/>
<path d="M5810 830 c0 -15 7 -20 25 -20 18 0 25 5 25 20 0 15 -7 20 -25 20
-18 0 -25 -5 -25 -20z"/>
<path d="M7250 470 c-9 -6 -10 -10 -3 -10 6 0 15 5 18 10 8 12 4 12 -15 0z"/>
<path d="M3310 405 c7 -9 15 -13 17 -11 7 7 -7 26 -19 26 -6 0 -6 -6 2 -15z"/>
<path d="M7050 370 c-9 -6 -10 -10 -3 -10 6 0 15 5 18 10 8 12 4 12 -15 0z"/>
<path d="M3470 340 c0 -5 5 -10 10 -10 6 0 10 5 10 10 0 6 -4 10 -10 10 -5 0
-10 -4 -10 -10z"/>
<path d="M3530 329 c0 -5 5 -7 10 -4 6 3 10 8 10 11 0 2 -4 4 -10 4 -5 0 -10
-5 -10 -11z"/>
<path d="M6853 296 c-18 -6 -36 -16 -40 -20 -4 -5 0 -6 10 -3 10 4 24 7 31 7
7 0 21 7 32 15 22 17 12 17 -33 1z"/>
<path d="M6716 241 c-4 -5 3 -7 14 -4 23 6 26 13 6 13 -8 0 -17 -4 -20 -9z"/>
<path d="M6640 220 c-13 -9 -13 -10 0 -9 8 0 24 4 35 9 l20 9 -20 0 c-11 0
-27 -4 -35 -9z"/>
<path d="M4050 195 c0 -8 2 -15 4 -15 2 0 6 7 10 15 3 8 1 15 -4 15 -6 0 -10
-7 -10 -15z"/>
<path d="M4115 180 c3 -5 8 -10 11 -10 2 0 4 5 4 10 0 6 -5 10 -11 10 -5 0 -7
-4 -4 -10z"/>
<path d="M4174 174 c3 -9 6 -21 6 -27 1 -7 6 -6 13 4 16 20 45 31 52 19 4 -6
11 -10 17 -10 7 0 6 6 -2 15 -7 9 -29 15 -52 15 -33 0 -39 -3 -34 -16z"/>
<path d="M4351 166 l-24 -13 24 -17 c29 -20 46 -21 30 -2 -6 7 -9 21 -5 30 7
19 6 19 -25 2z"/>
<path d="M6415 160 c-8 -13 5 -13 25 0 13 8 13 10 -2 10 -9 0 -20 -4 -23 -10z"/>
<path d="M6340 150 c-12 -8 -10 -10 10 -10 14 0 32 5 40 10 12 8 10 10 -10 10
-14 0 -32 -5 -40 -10z"/>
<path d="M4420 140 c0 -5 5 -10 10 -10 6 0 10 5 10 10 0 6 -4 10 -10 10 -5 0
-10 -4 -10 -10z"/>
<path d="M4687 144 c-3 -3 1 -13 9 -21 8 -9 18 -12 21 -9 4 4 0 13 -8 21 -8 9
-18 13 -22 9z"/>
<path d="M4933 133 c-13 -2 -23 -11 -23 -19 0 -17 19 -18 43 0 17 14 23 27 10
25 -5 -1 -18 -4 -30 -6z"/>
<path d="M6160 120 c-12 -8 -10 -10 8 -10 13 0 20 4 17 10 -7 12 -6 12 -25 0z"/>
<path d="M6020 100 c-24 -8 -23 -8 8 -9 20 -1 31 3 27 9 -3 6 -7 10 -8 9 -1
-1 -13 -5 -27 -9z"/>
</g>
</svg>
