<?xml version="1.0" standalone="no"?>
<!DOCTYPE svg PUBLIC "-//W3C//DTD SVG 20010904//EN"
 "http://www.w3.org/TR/2001/REC-SVG-20010904/DTD/svg10.dtd">
<svg version="1.0" xmlns="http://www.w3.org/2000/svg"
 width="1024.000000pt" height="1024.000000pt" viewBox="0 0 1024.000000 1024.000000"
 preserveAspectRatio="xMidYMid meet">

<g transform="translate(0.000000,1024.000000) scale(0.100000,-0.100000)"
fill="current" stroke="current">
<path d="M5011 10138 c-49 -24 -140 -109 -158 -148 -6 -14 -44 -99 -83 -190
-423 -969 -1104 -1959 -1885 -2744 -596 -600 -1202 -1049 -1845 -1370 -242
-120 -389 -181 -655 -272 -168 -58 -171 -59 -231 -119 -64 -63 -84 -105 -84
-175 0 -70 20 -112 84 -175 60 -60 63 -61 231 -119 258 -88 410 -151 635 -262
397 -196 759 -428 1143 -731 1076 -852 2051 -2120 2607 -3393 39 -91 77 -176
83 -190 19 -39 111 -125 159 -149 60 -29 156 -29 216 0 48 24 140 110 159 149
6 14 44 99 83 190 556 1273 1531 2541 2607 3393 384 303 746 535 1143 731 225
111 377 174 635 262 168 58 171 59 231 119 64 63 84 105 84 175 0 70 -20 112
-84 175 -60 60 -63 61 -231 119 -266 91 -413 152 -655 272 -643 321 -1249 770
-1845 1370 -781 785 -1462 1775 -1885 2744 -39 91 -77 176 -83 190 -19 39
-111 125 -159 149 -61 29 -157 29 -217 -1z"/>
</g>
</svg>
