<?xml version="1.0" standalone="no"?>
<!DOCTYPE svg PUBLIC "-//W3C//DTD SVG 20010904//EN"
 "http://www.w3.org/TR/2001/REC-SVG-20010904/DTD/svg10.dtd">
<svg version="1.0" xmlns="http://www.w3.org/2000/svg"
 width="1024.000000pt" height="1024.000000pt" viewBox="0 0 1024.000000 1024.000000"
 preserveAspectRatio="xMidYMid meet">

<g transform="translate(0.000000,1024.000000) scale(0.100000,-0.100000)"
fill="current" stroke="current">
<path d="M5082 9550 c-36 -22 -510 -296 -1472 -850 -327 -188 -973 -561 -1435
-827 -462 -267 -859 -496 -883 -510 l-42 -24 2 -2236 3 -2237 345 -199 c190
-110 653 -377 1030 -595 377 -217 987 -569 1355 -782 369 -212 775 -447 904
-520 l233 -134 34 20 c19 10 84 49 146 85 94 55 1856 1071 2543 1467 110 63
394 227 630 365 237 137 449 260 473 274 l42 24 0 2234 0 2234 -57 32 c-32 18
-211 121 -398 229 -512 297 -2299 1329 -2810 1623 -247 142 -483 279 -523 303
-40 24 -76 44 -80 44 -4 0 -22 -9 -40 -20z m693 -435 c303 -175 768 -444 1035
-598 267 -154 541 -312 610 -352 241 -140 767 -443 970 -560 113 -65 266 -153
340 -196 74 -43 136 -82 138 -87 2 -7 -735 -440 -781 -457 -8 -4 -186 93 -423
231 -225 130 -717 415 -1094 632 -377 217 -739 426 -805 465 -66 38 -229 132
-362 209 l-243 140 0 465 0 465 33 -20 c17 -11 280 -163 582 -337z m465 -1667
c586 -338 1154 -665 1263 -728 l197 -113 0 -1482 0 -1483 -77 -44 c-89 -50
-1547 -893 -2023 -1168 -173 -100 -354 -205 -402 -232 l-88 -50 -402 232
c-222 128 -482 279 -578 335 -296 172 -990 574 -1290 747 l-285 164 -3 1495
-2 1495 527 304 c554 318 1377 794 1793 1036 l245 142 30 -18 c17 -10 509
-294 1095 -632z m-3424 -4049 c154 -88 533 -308 844 -487 311 -180 754 -435
985 -568 l420 -241 3 -183 c2 -144 0 -181 -10 -177 -7 2 -443 253 -968 557
-525 303 -1159 669 -1408 813 -249 143 -451 265 -449 270 2 8 285 175 298 176
4 1 132 -71 285 -160z"/>
<path d="M5095 7941 c-10 -9 -102 -63 -1175 -681 -327 -189 -665 -384 -750
-433 -85 -49 -226 -130 -312 -180 l-158 -90 0 -1421 0 -1421 388 -223 c213
-123 443 -256 512 -296 69 -40 431 -250 805 -466 374 -216 687 -397 695 -403
15 -9 263 132 2078 1180 l372 215 0 1412 0 1413 -52 28 c-51 27 -295 168
-1348 777 -671 388 -1037 598 -1042 598 -2 0 -8 -4 -13 -9z m312 -597 c1246
-720 1705 -984 1732 -998 l31 -17 0 -1187 -1 -1187 -980 -565 c-540 -311
-1002 -577 -1028 -592 l-46 -27 -70 41 c-39 22 -464 268 -945 545 -481 278
-915 528 -965 557 l-90 52 0 1173 0 1173 455 262 c1254 723 1577 910 1595 922
11 8 20 14 22 14 1 0 131 -75 290 -166z"/>
<path d="M4265 6326 l-560 -322 -5 -875 c-3 -481 -4 -878 -2 -884 1 -5 112
-73 245 -149 133 -77 385 -223 560 -324 175 -101 320 -182 323 -180 2 3 3 692
2 1531 l-3 1526 -560 -323z"/>
<path d="M5410 5120 l0 -1532 38 23 c68 41 983 570 1036 598 l51 28 0 883 0
883 -220 127 c-121 69 -371 213 -555 320 -184 106 -338 195 -342 197 -5 2 -8
-685 -8 -1527z"/>
</g>
</svg>
