<?xml version="1.0" standalone="no"?>
<!DOCTYPE svg PUBLIC "-//W3C//DTD SVG 20010904//EN"
 "http://www.w3.org/TR/2001/REC-SVG-20010904/DTD/svg10.dtd">
<svg version="1.0" xmlns="http://www.w3.org/2000/svg"
 width="1024.000000pt" height="1024.000000pt" viewBox="0 0 1024.000000 1024.000000"
 preserveAspectRatio="xMidYMid meet">

<g transform="translate(0.000000,1024.000000) scale(0.100000,-0.100000)"
fill="current" stroke="current">
<path d="M3801 9636 c-10 -12 -6 -29 18 -83 79 -180 115 -373 111 -593 -6
-310 0 -354 74 -505 103 -209 277 -344 472 -368 l81 -11 169 125 c93 69 207
153 254 186 82 59 86 64 98 115 15 66 16 184 1 246 -18 76 -94 223 -148 285
-118 136 -236 206 -431 256 -63 16 -146 41 -185 56 -138 52 -314 156 -430 254
-32 28 -62 51 -66 51 -4 0 -12 -6 -18 -14z"/>
<path d="M4853 8199 c-246 -180 -254 -189 -214 -233 10 -12 123 -167 251 -346
252 -352 266 -370 288 -370 16 0 96 55 334 232 80 60 148 115 151 122 8 22 -7
45 -251 373 -127 172 -243 330 -258 353 -18 26 -34 40 -48 40 -11 -1 -126 -78
-253 -171z"/>
<path d="M3735 7640 c-60 -11 -299 -99 -445 -164 -896 -399 -1597 -1142 -1929
-2043 -210 -573 -261 -1241 -140 -1833 169 -824 633 -1555 1309 -2064 528
-397 1105 -630 1790 -723 194 -26 726 -26 920 0 1076 146 1978 675 2585 1518
100 139 128 276 90 454 -92 435 -662 838 -1480 1045 -183 46 -306 97 -371 153
-288 244 -475 792 -476 1392 0 552 -75 921 -265 1300 -256 512 -703 865 -1203
949 -117 20 -318 28 -385 16z m453 -596 c240 -48 442 -228 518 -460 26 -80 29
-102 29 -219 0 -119 -3 -137 -31 -216 -77 -216 -241 -372 -464 -440 -58 -18
-99 -23 -180 -24 -129 0 -187 14 -310 72 -81 39 -108 58 -180 132 -138 139
-200 287 -200 481 0 120 19 202 72 310 34 68 60 103 128 171 72 73 101 94 180
132 152 74 286 92 438 61z m-1300 -1500 c240 -48 442 -228 518 -460 26 -80 29
-102 29 -219 0 -119 -3 -137 -31 -216 -77 -216 -241 -372 -464 -440 -58 -18
-99 -23 -180 -24 -129 0 -187 14 -310 72 -81 39 -108 58 -180 132 -138 139
-200 287 -200 481 0 120 19 202 72 310 34 68 60 103 128 171 72 73 101 94 180
132 152 74 286 92 438 61z m380 -1840 c240 -48 442 -228 518 -460 26 -80 29
-102 29 -219 0 -119 -3 -137 -31 -216 -77 -216 -241 -372 -464 -440 -58 -18
-99 -23 -180 -24 -129 0 -187 14 -310 72 -81 39 -108 58 -180 132 -138 139
-200 287 -200 481 0 120 19 202 72 310 34 68 60 103 128 171 72 73 101 94 180
132 152 74 286 92 438 61z m1750 -660 c240 -48 442 -228 518 -460 26 -80 29
-102 29 -219 0 -119 -3 -137 -31 -216 -77 -216 -241 -372 -464 -440 -58 -18
-99 -23 -180 -24 -129 0 -187 14 -310 72 -81 39 -108 58 -180 132 -138 139
-200 287 -200 481 0 120 19 202 72 310 34 68 60 103 128 171 72 73 101 94 180
132 152 74 286 92 438 61z"/>
<path d="M5620 7444 c-91 -69 -227 -168 -302 -220 -76 -52 -138 -101 -138
-108 0 -24 124 -181 145 -183 12 -2 75 37 160 100 330 240 445 327 445 337 0
13 -123 193 -135 197 -6 1 -84 -54 -175 -123z"/>
<path d="M5888 7267 c-35 -34 -246 -192 -355 -266 -123 -82 -136 -99 -109
-130 13 -16 171 -250 1431 -2126 373 -555 707 -1047 743 -1093 385 -499 1199
-1182 1414 -1186 40 -1 42 1 49 34 28 129 -104 555 -308 995 -115 248 -299
576 -412 735 -39 56 -825 1051 -2047 2591 -177 224 -330 418 -339 433 -19 28
-46 34 -67 13z"/>
</g>
</svg>
