<?xml version="1.0" standalone="no"?>
<!DOCTYPE svg PUBLIC "-//W3C//DTD SVG 20010904//EN"
 "http://www.w3.org/TR/2001/REC-SVG-20010904/DTD/svg10.dtd">
<svg version="1.0" xmlns="http://www.w3.org/2000/svg"
 width="1024.000000pt" height="1024.000000pt" viewBox="0 0 1024.000000 1024.000000"
 preserveAspectRatio="xMidYMid meet">

<g transform="translate(0.000000,1024.000000) scale(0.100000,-0.100000)"
fill="current" stroke="current">
<path d="M2836 7690 c-203 -27 -377 -52 -386 -57 -10 -4 -80 -84 -156 -177
l-139 -169 -75 -21 -75 -21 -32 -65 c-48 -101 -1079 -2817 -1095 -2885 -19
-90 -14 -334 11 -476 93 -532 425 -947 879 -1099 319 -107 678 -73 1002 96
407 211 733 645 845 1124 15 63 29 121 31 128 5 18 2943 18 2948 0 2 -7 16
-65 31 -128 92 -393 334 -767 649 -1002 172 -129 407 -230 606 -263 711 -115
1335 371 1471 1144 25 142 30 386 10 476 -15 68 -1046 2784 -1094 2885 l-32
65 -75 21 -75 21 -139 169 c-76 93 -145 173 -152 177 -15 9 -771 107 -824 107
-32 0 -52 -15 -175 -126 l-140 -125 -80 6 c-44 3 -161 12 -260 20 -422 33
-636 40 -1195 40 -559 0 -773 -7 -1195 -40 -99 -8 -216 -17 -260 -20 l-80 -6
-140 125 -139 126 -51 -1 c-27 -1 -216 -23 -419 -49z m465 -162 c32 -29 59
-55 59 -58 0 -4 -55 -12 -122 -19 -188 -19 -507 -60 -668 -86 -79 -13 -145
-23 -147 -22 -1 1 25 34 57 73 l59 71 138 18 c76 10 228 30 338 45 110 15 206
28 213 29 7 0 40 -23 73 -51z m4074 2 l320 -41 33 -37 c19 -20 48 -54 65 -76
l31 -38 -30 6 c-115 24 -544 82 -789 107 -66 7 -122 14 -125 16 -2 2 23 28 55
58 51 46 65 54 90 50 17 -2 174 -23 350 -45z m-4341 -930 c112 -28 207 -83
290 -165 122 -121 184 -256 193 -419 11 -190 -54 -356 -191 -491 -129 -128
-273 -188 -451 -187 -322 0 -586 232 -635 556 -33 218 66 458 243 592 163 122
360 163 551 114z m4475 5 c319 -76 539 -393 491 -711 -32 -213 -154 -387 -340
-483 -100 -52 -185 -73 -295 -73 -178 -1 -322 59 -451 187 -137 135 -202 301
-191 491 9 163 71 298 193 419 155 154 383 219 593 170z m-2925 -298 c104 -59
99 -215 -9 -267 -38 -18 -61 -20 -286 -20 -216 0 -249 3 -285 19 -96 44 -123
153 -57 232 47 55 64 58 343 58 246 1 256 0 294 -22z m1672 -3 c51 -38 69 -71
69 -129 0 -61 -21 -98 -76 -130 -31 -18 -55 -20 -287 -23 -239 -3 -256 -2
-296 17 -109 53 -115 208 -10 269 38 22 45 22 306 20 251 -3 268 -4 294 -24z
m-858 -894 c98 -60 94 -201 -8 -252 -30 -16 -66 -18 -270 -18 -204 0 -240 2
-270 18 -102 51 -106 192 -8 252 31 18 51 20 278 20 227 0 247 -2 278 -20z
m-3103 -755 c294 -129 284 -123 301 -157 25 -49 18 -96 -20 -134 -57 -57 -84
-51 -367 71 -133 58 -248 113 -255 123 -61 79 -18 202 70 202 18 0 134 -45
271 -105z m5978 84 c38 -29 52 -84 35 -133 -7 -21 -20 -42 -28 -47 -56 -27
-553 -229 -566 -229 -9 0 -31 15 -50 34 -38 38 -45 86 -20 134 23 45 65 68
303 167 243 101 282 110 326 74z m-6358 -358 c64 -25 382 -164 433 -190 51
-26 78 -86 62 -137 -15 -46 -63 -84 -105 -84 -27 0 -316 118 -518 211 -37 17
-67 68 -67 114 0 29 7 44 34 71 41 41 83 45 161 15z m6571 -15 c26 -26 34 -42
34 -71 0 -47 -26 -91 -65 -109 -125 -59 -512 -216 -530 -216 -33 0 -81 44 -95
85 -9 29 -8 41 8 77 21 49 7 42 327 177 244 103 270 108 321 57z m-6601 -418
c269 -116 282 -122 300 -158 32 -63 5 -139 -59 -160 -33 -11 -46 -6 -287 97
-138 59 -261 118 -274 131 -32 32 -39 78 -18 121 20 40 76 74 108 65 11 -3
115 -47 230 -96z m6774 76 c50 -35 61 -119 21 -162 -10 -10 -94 -51 -187 -90
-368 -156 -353 -151 -385 -140 -61 21 -85 104 -49 164 16 26 47 43 192 104 96
41 208 88 249 106 85 37 125 41 159 18z"/>
<path d="M2780 6355 c-114 -32 -203 -107 -251 -209 -91 -194 -6 -423 190 -515
49 -23 69 -26 156 -26 113 0 164 17 242 81 226 186 167 551 -106 655 -71 26
-165 32 -231 14z"/>
<path d="M7290 6359 c-67 -13 -145 -55 -195 -106 -116 -115 -145 -293 -73
-441 31 -65 116 -148 185 -180 51 -24 70 -27 158 -27 87 0 107 4 156 26 332
155 288 631 -66 723 -65 17 -97 18 -165 5z"/>
</g>
</svg>
