<?xml version="1.0" standalone="no"?>
<!DOCTYPE svg PUBLIC "-//W3C//DTD SVG 20010904//EN"
 "http://www.w3.org/TR/2001/REC-SVG-20010904/DTD/svg10.dtd">
<svg version="1.0" xmlns="http://www.w3.org/2000/svg"
 width="1024.000000pt" height="1024.000000pt" viewBox="0 0 1024.000000 1024.000000"
 preserveAspectRatio="xMidYMid meet">

<g transform="translate(0.000000,1024.000000) scale(0.100000,-0.100000)"
fill="current" stroke="current">
<path d="M3365 9094 c-267 -47 -524 -197 -688 -403 -56 -71 -58 -75 -40 -92
10 -9 63 -36 118 -59 55 -23 151 -65 212 -92 l113 -50 47 23 c36 18 64 23 108
23 227 -5 337 -263 183 -431 -43 -46 -124 -83 -182 -83 -141 0 -256 114 -256
253 0 32 -4 66 -9 75 -15 28 -218 120 -324 147 -124 31 -303 42 -407 25 -389
-64 -708 -305 -889 -672 -96 -196 -129 -364 -112 -574 16 -201 59 -331 158
-483 160 -245 417 -400 725 -435 50 -6 56 -2 128 79 57 64 186 89 272 51 129
-56 192 -208 138 -334 -78 -180 -325 -215 -437 -61 -54 75 -56 75 -126 82
-130 12 -329 94 -497 205 -93 62 -218 176 -251 228 -27 44 -47 43 -120 -6
-381 -260 -542 -754 -398 -1225 62 -207 218 -429 389 -555 77 -56 179 -109
200 -103 8 3 56 24 105 49 106 51 252 105 385 141 94 26 100 26 565 32 l469 6
24 35 c67 102 139 145 237 143 227 -3 337 -262 183 -430 -43 -46 -124 -83
-182 -83 -89 0 -152 37 -237 138 l-27 32 -479 0 c-540 0 -533 1 -691 -75 -241
-115 -428 -297 -548 -532 -144 -282 -172 -618 -79 -938 132 -452 536 -811 984
-876 131 -19 354 -7 470 25 157 44 367 153 390 203 8 17 5 35 -16 80 -81 176
41 369 232 366 138 -2 240 -97 252 -235 15 -155 -110 -278 -281 -278 -52 0
-66 -4 -82 -22 -36 -41 -171 -135 -260 -180 -101 -52 -228 -98 -272 -98 -52 0
-57 -20 -27 -102 136 -360 413 -599 790 -680 99 -21 324 -16 428 10 162 40
335 124 419 203 l38 36 0 506 0 507 219 0 220 0 68 -95 c37 -53 88 -123 111
-155 l44 -60 342 0 342 0 49 -50 c27 -27 57 -50 66 -50 10 0 48 18 87 40 38
22 75 40 82 40 7 0 39 -10 70 -22 l58 -23 15 -71 c9 -38 21 -82 26 -97 l11
-27 137 0 c76 0 143 4 149 8 10 7 54 147 54 174 0 7 32 25 70 40 l71 27 52
-33 c29 -18 67 -41 85 -50 l33 -17 95 92 c51 51 96 101 100 111 3 12 -11 47
-40 98 l-46 79 28 70 27 70 88 22 c55 13 91 28 97 38 11 22 0 280 -12 287 -5
4 -46 16 -91 28 l-80 21 -27 65 -26 65 32 51 c67 106 67 109 38 143 l-26 31
101 0 c56 0 101 -2 101 -5 0 -3 -16 -37 -35 -75 -19 -38 -35 -78 -35 -88 0
-22 23 -44 155 -151 55 -45 108 -81 119 -81 11 0 57 28 104 61 46 34 89 62 95
63 7 0 35 -7 62 -16 28 -9 61 -19 75 -22 23 -5 30 -18 60 -111 19 -58 40 -111
48 -117 16 -14 337 15 357 32 7 6 21 61 30 123 l18 113 80 41 80 42 98 -50
c54 -27 105 -49 112 -49 12 0 154 162 216 247 l24 31 -72 102 c-57 82 -69 104
-61 119 5 10 18 49 28 86 l18 68 102 36 c56 20 106 41 113 48 9 9 8 50 -5 172
-9 88 -19 167 -22 175 -7 19 -18 22 -119 36 -44 6 -88 13 -97 16 -9 3 -35 38
-57 79 l-40 75 45 93 c24 52 44 103 44 115 0 13 -41 53 -131 126 -72 58 -136
106 -143 106 -7 0 -52 -28 -100 -63 l-87 -63 -96 32 -97 32 -31 93 c-17 51
-38 97 -46 102 -21 13 -339 -18 -355 -35 -6 -7 -19 -58 -29 -113 -9 -55 -17
-100 -18 -101 -1 0 -42 -22 -90 -47 l-88 -47 -91 46 c-50 25 -96 43 -103 40
-14 -5 -194 -211 -222 -253 -14 -21 -11 -28 51 -117 l66 -95 -17 -61 -18 -60
-124 0 -124 0 67 70 c50 51 66 75 61 88 -3 9 -35 68 -71 130 l-65 113 36 87
c20 48 40 95 44 106 5 14 38 26 140 51 73 18 137 39 142 46 14 23 11 412 -4
432 -7 11 -60 30 -135 50 -67 18 -128 39 -135 47 -8 8 -26 47 -42 85 -16 39
-32 75 -37 81 -6 8 17 53 62 126 38 63 70 124 70 134 0 23 -288 314 -311 314
-8 0 -66 -30 -129 -66 l-114 -65 -76 34 c-41 19 -91 40 -111 46 -34 11 -36 13
-57 104 -12 50 -22 95 -22 100 0 4 162 7 360 7 l360 0 -7 -32 c-17 -81 -21
-76 142 -160 83 -42 159 -77 171 -78 13 0 45 29 94 85 41 47 79 85 84 86 50 3
172 -4 174 -10 1 -4 30 -51 63 -104 47 -75 65 -97 83 -97 27 0 313 95 332 111
13 11 13 32 0 204 -5 50 -4 50 46 90 27 22 60 48 72 57 20 17 25 17 121 -7 55
-14 110 -25 123 -25 19 0 34 25 105 166 l82 165 -35 32 c-19 18 -61 55 -92 82
l-57 51 7 96 7 97 95 59 c52 33 96 67 98 76 6 30 -101 338 -119 345 -10 3 -64
3 -121 0 -57 -3 -107 -4 -113 -1 -5 2 -34 33 -62 68 l-53 63 26 107 c14 58 23
112 20 120 -6 16 -298 164 -325 164 -11 0 -47 -33 -90 -83 l-71 -83 -53 7
c-28 4 -75 8 -102 8 l-50 1 -43 73 c-24 39 -51 83 -62 97 l-19 25 -163 -54
c-90 -29 -169 -59 -177 -65 -11 -8 -13 -34 -8 -123 l5 -112 -26 -17 c-15 -10
-51 -40 -79 -67 l-53 -50 -102 26 c-90 23 -105 24 -119 11 -22 -19 -159 -287
-159 -310 0 -11 36 -54 83 -99 l84 -80 -6 -87 -6 -87 -90 -56 c-130 -81 -123
-67 -85 -182 18 -54 35 -104 38 -110 3 -10 -135 -13 -670 -13 l-674 0 -84 116
c-47 64 -103 139 -126 167 l-40 52 -257 3 -257 2 0 60 c0 67 -16 79 -48 38
-69 -91 -176 -162 -325 -216 l-72 -26 -437 -6 -437 -5 -44 -43 c-46 -46 -126
-82 -180 -82 -228 0 -346 278 -186 439 50 50 112 75 184 74 104 -1 194 -60
234 -153 18 -41 26 -50 54 -55 17 -3 210 -5 428 -3 l396 3 85 42 c107 53 182
115 252 206 63 83 95 148 96 195 l0 32 349 0 c193 0 352 -4 355 -9 3 -5 -17
-46 -44 -91 -37 -61 -47 -87 -40 -99 11 -21 198 -201 208 -201 4 0 44 22 90
49 l83 49 67 -28 c36 -16 67 -32 69 -37 1 -4 10 -46 20 -92 14 -66 22 -86 40
-94 13 -6 72 -7 157 -2 l136 7 10 37 c5 20 15 62 23 94 l13 59 71 29 70 30 81
-51 c45 -27 85 -50 90 -50 4 0 54 47 112 105 l104 105 -21 42 c-12 24 -34 64
-49 90 l-26 46 29 73 29 73 84 18 c46 10 90 24 97 30 10 8 13 46 13 147 0 75
-4 141 -8 148 -4 6 -47 22 -96 35 l-89 24 -29 66 -29 65 45 75 c25 42 46 82
46 89 0 8 -47 61 -104 118 l-104 104 -82 -47 -81 -47 -78 32 -78 32 -12 56
c-7 31 -17 71 -23 89 l-10 33 -151 -3 -152 -3 -14 -47 -15 -48 -578 0 -578 0
0 100 0 101 -45 44 c-185 186 -500 272 -800 219z m1527 -648 c-40 -41 -72 -77
-72 -81 0 -5 20 -45 45 -90 44 -82 45 -83 30 -119 l-15 -36 -335 0 -335 0 0
200 0 200 377 0 376 0 -71 -74z m338 59 c-32 -18 -50 -18 -74 0 -18 14 -15 15
40 15 56 -1 58 -1 34 -15z m427 -346 c42 -16 73 -37 114 -78 65 -67 89 -124
89 -218 0 -288 -353 -425 -545 -211 -221 246 31 621 342 507z m-995 -298 c-3
-172 -11 -158 103 -186 39 -9 77 -21 85 -26 9 -5 -122 -9 -312 -9 l-328 0 0
185 0 185 228 0 227 0 -3 -149z m2841 -418 c83 -40 150 -107 191 -193 28 -58
31 -75 31 -160 0 -86 -3 -101 -32 -162 -39 -82 -101 -146 -185 -190 -59 -30
-70 -33 -163 -33 -93 0 -105 2 -170 33 -83 39 -151 107 -192 190 -25 51 -27
68 -28 162 0 96 2 110 29 165 50 100 156 190 258 216 18 4 69 7 113 5 66 -2
93 -8 148 -33z m-2717 -680 c64 -87 121 -162 126 -168 8 -9 1121 -25 1590 -23
113 0 127 -2 136 -19 6 -10 31 -38 56 -63 25 -25 46 -51 46 -57 0 -10 -260
-13 -1265 -13 l-1265 0 0 250 0 250 230 0 229 0 117 -157z m685 -553 l-26 -99
-60 -22 c-33 -12 -85 -34 -115 -49 l-55 -28 -75 49 c-110 73 -142 88 -165 79
-23 -9 -305 -292 -305 -306 1 -5 7 -20 15 -34 8 -14 14 -28 15 -32 0 -5 -110
-8 -245 -8 l-244 0 -3 68 -3 67 -107 3 -107 3 -17 -33 c-41 -81 -143 -148
-228 -148 -227 0 -345 278 -185 439 50 50 112 75 184 74 94 -1 170 -44 221
-125 18 -28 31 -38 49 -38 36 0 89 24 146 66 l49 36 0 69 0 69 644 0 643 0
-26 -100z m-683 -591 l20 -32 -28 -61 c-15 -33 -34 -80 -40 -103 l-13 -43
-259 0 -258 0 0 135 0 135 279 0 279 0 20 -31z m1104 -78 c297 -102 411 -465
225 -713 -138 -184 -371 -244 -573 -147 -295 140 -359 535 -123 753 136 126
305 164 471 107z m-1452 -463 c0 -106 4 -199 9 -206 4 -7 64 -28 132 -46 68
-19 131 -37 140 -40 8 -4 27 -36 41 -71 l25 -65 -288 0 -289 0 0 310 0 310
115 0 115 0 0 -192z m332 -570 c-72 -119 -92 -155 -92 -171 0 -10 28 -48 62
-83 l61 -64 -296 0 -297 0 0 175 0 175 291 0 291 0 -20 -32z m3130 -168 c35
-13 79 -41 113 -71 178 -163 165 -444 -28 -586 -263 -193 -628 9 -605 335 11
151 110 277 261 333 67 24 178 20 259 -11z m-2952 -285 c30 -32 57 -32 111 0
42 24 51 25 217 25 172 0 172 0 172 -22 1 -42 58 -251 72 -259 22 -14 411 -11
431 4 17 12 77 210 77 255 0 22 0 22 175 22 l175 0 55 -31 c58 -33 72 -31 109
10 16 18 30 21 100 21 60 -1 76 -3 64 -11 -13 -7 -18 -22 -18 -52 1 -69 28
-309 37 -318 4 -4 51 -15 103 -23 138 -23 134 -22 153 -61 9 -20 17 -38 17
-40 0 -3 -63 -5 -141 -5 -112 0 -147 3 -168 16 -25 15 -30 15 -59 0 -23 -12
-60 -16 -150 -16 l-120 0 -17 73 c-28 116 -14 108 -183 105 l-147 -3 -23 -87
-24 -88 -120 0 c-88 0 -127 4 -149 16 -28 14 -33 14 -54 0 -21 -14 -77 -16
-413 -16 l-388 0 -145 196 c-79 108 -152 205 -161 215 -16 17 -35 19 -173 19
l-155 0 0 40 0 40 358 0 359 0 23 -25z m-340 -352 c74 -102 146 -198 158 -214
l24 -29 361 0 361 0 -27 -28 c-15 -15 -27 -33 -27 -39 0 -6 20 -46 44 -88 l43
-77 -28 -66 -27 -66 -84 -21 c-46 -12 -89 -24 -96 -29 -15 -9 -17 -258 -3
-285 7 -11 37 -24 90 -36 44 -10 84 -21 89 -24 5 -3 23 -35 39 -70 l29 -65
-46 -77 -45 -78 -268 -1 -267 0 -88 118 c-48 64 -98 134 -112 155 l-25 37
-247 0 -248 0 -2 483 -3 482 -21 3 c-17 2 -28 -9 -53 -52 -54 -97 -200 -189
-376 -238 -77 -21 -100 -22 -585 -26 l-505 -3 -48 -54 c-75 -85 -167 -112
-273 -80 -179 53 -236 289 -103 424 125 126 341 88 416 -74 l18 -40 490 -3
490 -3 83 27 c149 48 302 154 382 263 l45 61 155 0 155 -1 135 -186z m1686
-517 c157 -72 226 -266 147 -419 -24 -48 -85 -107 -137 -135 -44 -23 -63 -27
-141 -27 -74 0 -97 4 -132 23 -104 55 -163 142 -171 252 -17 241 216 405 434
306z"/>
<path d="M8483 6568 c-6 -7 -18 -46 -28 -86 -17 -73 -18 -74 -64 -94 -25 -11
-60 -26 -78 -35 -31 -14 -34 -14 -75 15 -24 16 -58 37 -77 46 l-33 18 -51 -49
c-137 -130 -157 -151 -157 -164 0 -8 20 -48 44 -89 43 -74 44 -75 29 -110 -8
-19 -20 -49 -26 -67 -9 -29 -15 -33 -96 -53 -47 -12 -91 -26 -98 -32 -18 -15
-18 -281 0 -296 6 -5 47 -18 89 -28 43 -9 82 -20 87 -23 5 -3 22 -36 38 -72
l30 -65 -50 -83 -51 -82 104 -104 c58 -58 109 -105 114 -105 5 0 45 21 88 46
l79 47 68 -27 67 -28 18 -89 c13 -64 23 -92 36 -99 28 -15 263 -13 282 3 9 6
27 52 40 100 l23 88 60 25 c33 13 66 24 72 24 7 0 45 -20 85 -45 40 -25 77
-45 83 -45 6 0 57 47 114 104 l104 105 -51 85 -51 86 24 52 c14 29 25 58 25
65 0 17 12 22 108 46 l87 22 3 146 c2 109 -1 149 -10 156 -7 6 -47 18 -88 28
-41 10 -80 23 -86 29 -5 6 -20 37 -33 68 l-23 58 46 75 c25 42 46 81 46 88 0
18 -194 207 -211 207 -8 -1 -47 -20 -87 -44 l-73 -43 -75 31 c-70 29 -74 33
-84 71 -6 22 -16 60 -23 85 l-13 45 -146 3 c-108 2 -148 -1 -155 -10z m261
-548 c75 -29 137 -86 169 -158 39 -87 44 -137 18 -219 -67 -224 -334 -298
-506 -142 -152 139 -133 371 39 487 27 17 62 36 80 41 55 16 142 12 200 -9z"/>
</g>
</svg>
