<?xml version="1.0" standalone="no"?>
<!DOCTYPE svg PUBLIC "-//W3C//DTD SVG 20010904//EN"
 "http://www.w3.org/TR/2001/REC-SVG-20010904/DTD/svg10.dtd">
<svg version="1.0" xmlns="http://www.w3.org/2000/svg"
 width="1024.000000pt" height="1024.000000pt" viewBox="0 0 1024.000000 1024.000000"
 preserveAspectRatio="xMidYMid meet">

<g transform="translate(0.000000,1024.000000) scale(0.100000,-0.100000)"
fill="current" stroke="current">
<path d="M4825 10229 c-82 -4 -186 -12 -230 -18 -44 -6 -134 -17 -200 -26
-866 -113 -1792 -515 -2488 -1082 -942 -767 -1572 -1814 -1806 -3003 -72 -366
-95 -644 -88 -1070 5 -349 25 -560 83 -860 186 -971 647 -1872 1313 -2564 356
-370 701 -646 1116 -891 134 -78 507 -267 605 -305 226 -89 236 -92 317 -97
60 -4 102 -1 155 12 90 22 123 37 171 84 75 71 72 36 68 611 -2 360 -6 519
-14 529 -13 16 -64 12 -222 -19 -139 -27 -508 -39 -637 -21 -235 34 -478 157
-630 320 -108 116 -196 263 -301 502 -92 208 -293 451 -474 573 -78 52 -213
185 -213 210 0 38 117 76 235 76 265 0 584 -206 755 -489 149 -247 225 -336
361 -426 254 -169 624 -212 955 -111 201 62 224 78 224 154 0 69 41 225 84
317 42 92 136 225 183 261 32 25 42 47 24 58 -5 4 -67 11 -138 16 -319 26
-699 138 -1048 310 -262 128 -370 203 -539 375 -270 275 -469 708 -550 1200
-41 247 -47 728 -12 920 58 313 178 634 311 831 26 38 81 103 122 145 l75 76
-35 95 c-97 258 -111 568 -40 903 22 109 81 304 104 347 22 42 231 26 432 -33
337 -100 646 -247 870 -415 47 -35 95 -64 106 -64 12 0 74 13 139 30 296 75
873 150 1152 150 279 0 856 -75 1152 -150 65 -17 127 -30 139 -30 11 0 59 29
106 64 224 168 533 315 870 415 201 59 410 75 432 33 23 -43 82 -238 104 -347
71 -335 57 -645 -40 -903 l-35 -95 75 -76 c41 -42 96 -107 122 -145 133 -197
253 -518 311 -831 35 -192 29 -673 -12 -920 -81 -492 -280 -925 -550 -1200
-169 -172 -277 -247 -539 -375 -349 -172 -729 -284 -1048 -310 -71 -5 -133
-12 -138 -16 -18 -11 -8 -33 24 -58 47 -36 141 -169 183 -261 97 -210 116
-434 120 -1441 2 -767 -2 -716 71 -785 48 -47 81 -62 171 -84 101 -25 211 -16
317 23 305 115 709 323 980 505 313 210 515 375 769 625 377 372 660 746 900
1186 318 586 499 1146 593 1836 26 196 28 223 28 615 0 261 -4 443 -12 500 -7
50 -19 144 -28 210 -48 372 -162 808 -305 1170 -18 44 -41 103 -52 130 -11 28
-57 127 -102 220 -502 1037 -1320 1860 -2351 2365 -430 211 -793 334 -1260
429 -135 27 -209 38 -465 71 -201 26 -543 34 -825 19z"/>
<path d="M1808 3059 c-51 -29 8 -119 78 -119 69 0 68 87 -1 115 -40 17 -54 18
-77 4z"/>
<path d="M2006 2871 c-24 -27 -13 -72 29 -116 28 -30 39 -35 78 -35 41 0 47 3
53 24 10 41 -14 94 -54 121 -44 30 -83 32 -106 6z"/>
<path d="M2205 2600 c-22 -24 -15 -69 20 -121 31 -47 82 -66 122 -47 36 17 41
55 14 111 -34 71 -116 101 -156 57z"/>
<path d="M2454 2317 c-23 -20 -26 -28 -20 -60 8 -42 54 -101 97 -123 61 -31
119 -6 119 52 0 45 -20 83 -65 123 -44 39 -92 42 -131 8z"/>
<path d="M2797 2092 c-26 -29 -21 -75 11 -107 33 -33 62 -45 110 -45 52 0 85
20 96 58 8 28 6 36 -15 59 -33 35 -79 53 -137 53 -35 0 -54 -5 -65 -18z"/>
<path d="M3645 2085 c-105 -54 -79 -155 39 -155 49 0 110 25 128 54 16 23 7
59 -21 87 -24 23 -38 29 -73 29 -24 0 -56 -7 -73 -15z"/>
<path d="M3250 2039 c-41 -16 -60 -40 -60 -73 1 -54 41 -86 109 -86 48 0 84
13 111 40 29 29 25 57 -14 96 -29 29 -41 34 -77 33 -24 0 -55 -5 -69 -10z"/>
</g>
</svg>
