<?xml version="1.0" standalone="no"?>
<!DOCTYPE svg PUBLIC "-//W3C//DTD SVG 20010904//EN"
 "http://www.w3.org/TR/2001/REC-SVG-20010904/DTD/svg10.dtd">
<svg version="1.0" xmlns="http://www.w3.org/2000/svg"
 width="1024.000000pt" height="1024.000000pt" viewBox="0 0 1024.000000 1024.000000"
 preserveAspectRatio="xMidYMid meet">

<g transform="translate(0.000000,1024.000000) scale(0.100000,-0.100000)"
fill="current" stroke="current">
<path d="M4575 9979 c-934 -70 -1650 -378 -1816 -780 -22 -53 -23 -64 -31
-713 -8 -620 -7 -660 9 -678 17 -19 38 -19 1118 -12 1006 6 1103 6 1132 -9 91
-47 108 -160 34 -231 l-28 -27 -1469 -14 c-808 -8 -1615 -19 -1794 -24 -296
-8 -331 -11 -390 -31 -403 -138 -737 -551 -935 -1155 -328 -997 -199 -2246
305 -2967 137 -196 353 -381 528 -452 l77 -31 539 -3 c485 -3 540 -1 556 13
17 15 19 55 23 578 5 628 2 594 83 837 51 153 148 358 223 472 157 236 498
459 849 556 l97 27 1435 5 1435 5 87 31 c222 80 421 240 555 447 58 88 90 162
113 259 18 74 19 155 26 1446 7 1464 8 1435 -42 1590 -33 101 -90 186 -187
278 -105 101 -220 177 -388 258 -364 174 -842 286 -1384 326 -162 11 -599 11
-760 -1z m-764 -739 c80 -15 157 -57 220 -119 128 -129 159 -309 81 -475 -43
-89 -101 -149 -185 -191 -174 -86 -355 -58 -488 74 -242 243 -118 636 226 714
36 8 92 7 146 -3z"/>
<path d="M7828 7373 c-14 -16 -17 -82 -21 -578 -5 -626 -2 -593 -83 -835 -51
-153 -148 -358 -223 -472 -157 -236 -498 -459 -849 -556 l-97 -27 -1435 -5
-1435 -5 -87 -31 c-222 -80 -421 -240 -555 -447 -58 -88 -90 -162 -113 -259
-18 -74 -19 -155 -26 -1446 -7 -1464 -8 -1435 42 -1590 33 -101 90 -186 187
-278 105 -101 220 -177 388 -258 611 -292 1557 -408 2417 -296 812 106 1394
390 1543 751 22 53 23 64 31 713 8 620 7 660 -9 678 -17 19 -38 19 -1118 12
-1006 -6 -1103 -6 -1132 9 -91 47 -108 160 -34 231 l28 27 1469 14 c808 8
1615 19 1794 24 296 8 331 11 390 31 403 138 737 551 935 1155 328 997 199
2246 -305 2967 -137 196 -353 381 -528 452 l-77 31 -541 3 c-508 3 -541 2
-556 -15z m-1188 -5560 c190 -62 316 -269 281 -464 -40 -231 -263 -391 -486
-350 -86 16 -162 56 -226 120 -129 130 -159 308 -80 477 72 153 244 253 411
237 30 -3 75 -12 100 -20z"/>
</g>
</svg>
