<?xml version="1.0" standalone="no"?>
<!DOCTYPE svg PUBLIC "-//W3C//DTD SVG 20010904//EN"
 "http://www.w3.org/TR/2001/REC-SVG-20010904/DTD/svg10.dtd">
<svg version="1.0" xmlns="http://www.w3.org/2000/svg"
 width="1024.000000pt" height="1024.000000pt" viewBox="0 0 1024.000000 1024.000000"
 preserveAspectRatio="xMidYMid meet">

<g transform="translate(0.000000,1024.000000) scale(0.100000,-0.100000)"
fill="current" stroke="current">
<path d="M6630 8920 c-146 -18 -297 -52 -428 -96 -112 -37 -232 -87 -232 -97
0 -1 -4 -17 -10 -35 -8 -29 -6 -37 15 -58 29 -28 45 -26 142 17 307 137 707
187 1088 134 606 -84 1181 -404 1532 -852 66 -85 87 -97 117 -67 37 36 13 80
-136 251 -154 178 -394 368 -626 496 -256 142 -559 245 -857 292 -119 19 -495
28 -605 15z"/>
<path d="M5205 8872 c-158 -55 -345 -242 -402 -404 -25 -69 -27 -83 -26 -258
1 -429 95 -1014 249 -1539 24 -84 43 -155 41 -157 -5 -6 -211 272 -334 451
-60 88 -163 246 -228 350 -251 404 -327 517 -418 612 -141 147 -290 248 -417
283 -73 21 -188 16 -245 -9 -136 -60 -220 -189 -263 -405 -11 -53 -22 -99 -25
-102 -3 -3 -32 0 -64 6 -224 47 -402 -37 -472 -224 -145 -389 120 -1233 657
-2091 77 -123 124 -226 160 -350 22 -76 34 -145 25 -145 -3 0 -33 22 -67 48
-194 154 -843 614 -972 691 -207 122 -487 195 -614 161 -64 -17 -133 -88 -154
-159 -56 -191 41 -523 277 -943 106 -187 185 -285 472 -577 250 -255 528 -513
757 -704 144 -119 172 -147 201 -201 212 -386 566 -800 942 -1101 252 -203
565 -355 820 -400 704 -123 1796 228 2517 809 337 271 574 590 638 857 28 117
26 161 -19 397 -100 522 -141 941 -141 1426 0 374 22 618 75 833 87 356 101
553 51 718 -35 118 -91 236 -142 302 -130 167 -316 218 -519 142 -178 -67
-444 -313 -610 -564 -62 -95 -168 -294 -206 -388 -26 -66 -44 -80 -88 -71 -65
13 -152 137 -290 412 -180 359 -378 880 -516 1357 -54 186 -120 449 -131 521
-10 68 -66 196 -119 270 -49 69 -121 126 -185 149 -56 20 -153 18 -215 -3z
m176 -226 c55 -19 105 -62 148 -127 52 -78 74 -140 112 -311 86 -393 269 -956
454 -1398 126 -302 308 -640 394 -733 38 -42 79 -60 136 -60 56 0 76 8 142 59
61 47 85 78 118 159 79 194 209 418 326 562 83 101 151 158 247 205 70 35 94
42 161 46 108 6 164 -14 240 -84 94 -86 164 -240 191 -416 14 -98 0 -237 -41
-401 -60 -240 -85 -419 -99 -724 -22 -465 29 -1089 135 -1633 37 -194 40 -251
15 -345 -143 -550 -956 -1174 -1875 -1440 -444 -128 -858 -157 -1159 -80 -109
27 -299 107 -409 171 -385 226 -843 708 -1113 1172 -70 119 -77 128 -176 207
-349 280 -939 855 -1110 1082 -155 206 -331 587 -373 804 -19 103 -19 161 3
223 20 57 52 85 111 96 61 11 124 -5 231 -58 124 -63 601 -396 1040 -729 167
-125 219 -151 274 -133 73 24 95 85 76 202 -24 143 -88 294 -204 482 -319 517
-545 1046 -616 1439 -13 72 -20 154 -20 236 0 171 24 256 94 329 64 68 134 86
276 70 53 -6 108 -8 122 -5 36 9 63 59 77 138 24 140 72 242 146 307 87 76
190 81 329 14 191 -92 328 -247 604 -688 270 -431 483 -733 705 -999 111 -132
156 -175 187 -175 64 0 64 45 -4 185 -81 167 -152 381 -231 695 -120 479 -181
885 -173 1162 3 139 4 144 35 198 48 83 116 159 225 248 31 25 133 62 173 61
22 0 56 -6 76 -13z"/>
<path d="M3410 7083 c0 -40 124 -385 175 -488 138 -277 361 -614 527 -795 113
-123 217 -222 254 -243 35 -20 6 20 -87 120 -56 59 -136 150 -180 201 -79 95
-262 356 -314 447 -42 75 -128 209 -140 217 -6 5 -7 8 0 8 6 0 4 4 -3 8 -7 5
-41 100 -76 213 -44 144 -74 221 -99 261 -41 63 -57 78 -57 51z"/>
<path d="M6594 5658 c-68 -51 -191 -212 -246 -323 -29 -57 -79 -202 -102 -290
-22 -88 -30 -255 -17 -366 11 -102 46 -229 61 -229 6 0 10 42 10 98 0 53 5
168 10 256 9 137 16 177 50 295 72 249 115 343 227 504 56 80 58 93 7 55z"/>
<path d="M4440 4249 c-78 -9 -140 -26 -140 -38 0 -3 64 -7 143 -8 206 -1 371
-34 550 -108 32 -14 18 19 -22 47 -79 56 -294 119 -401 116 -30 0 -89 -4 -130
-9z"/>
<path d="M6670 8544 c-191 -23 -349 -64 -480 -125 -98 -46 -127 -78 -110 -123
19 -52 47 -52 152 -2 345 164 794 178 1219 36 228 -76 396 -178 538 -325 70
-74 97 -96 114 -93 29 4 34 45 11 94 -42 89 -256 264 -428 351 -148 75 -343
136 -536 168 -91 16 -406 28 -480 19z"/>
<path d="M3647 2182 c-61 -68 55 -292 262 -506 190 -195 439 -366 666 -456
195 -77 364 -102 405 -58 11 12 20 29 20 38 0 28 -30 60 -56 60 -46 0 -197 42
-294 82 -216 88 -419 226 -606 412 -126 126 -212 244 -256 349 -14 32 -32 67
-41 78 -22 25 -78 25 -100 1z"/>
<path d="M4036 2018 c-19 -27 -20 -51 -4 -81 21 -41 93 -119 173 -189 244
-214 534 -347 753 -348 98 0 116 8 132 55 17 53 3 65 -79 65 -231 1 -564 178
-797 424 -82 86 -95 96 -127 96 -26 0 -40 -6 -51 -22z"/>
</g>
</svg>
