<?xml version="1.0" standalone="no"?>
<!DOCTYPE svg PUBLIC "-//W3C//DTD SVG 20010904//EN"
 "http://www.w3.org/TR/2001/REC-SVG-20010904/DTD/svg10.dtd">
<svg version="1.0" xmlns="http://www.w3.org/2000/svg"
 width="1024.000000pt" height="1024.000000pt" viewBox="0 0 1024.000000 1024.000000"
 preserveAspectRatio="xMidYMid meet">

<g transform="translate(0.000000,1024.000000) scale(0.100000,-0.100000)"
fill="current" stroke="current">
<path d="M6725 8884 c-224 -24 -422 -69 -587 -134 -114 -45 -144 -67 -134 -98
10 -32 39 -32 112 -1 714 302 1616 154 2279 -376 114 -91 259 -236 342 -342
36 -46 71 -83 78 -83 95 0 40 96 -185 321 -204 205 -379 329 -645 460 -243
118 -482 194 -745 234 -101 15 -433 28 -515 19z"/>
<path d="M5195 8722 c-97 -34 -210 -126 -302 -244 -66 -86 -93 -157 -104 -268
-34 -338 114 -1202 295 -1729 14 -41 25 -76 23 -77 -4 -5 -143 176 -257 336
-124 172 -300 440 -395 600 -230 386 -401 582 -606 694 -180 98 -360 86 -470
-31 -73 -77 -125 -190 -149 -330 -17 -94 -18 -95 -65 -81 -65 18 -212 16 -272
-5 -103 -36 -183 -134 -219 -267 -25 -94 -23 -300 4 -451 79 -427 321 -984
668 -1537 107 -170 198 -472 142 -472 -6 0 -47 28 -92 63 -253 198 -867 633
-1001 710 -178 103 -352 152 -458 128 -230 -51 -249 -331 -52 -780 79 -182
213 -414 299 -519 176 -215 823 -839 1094 -1055 80 -64 100 -85 134 -148 143
-266 425 -619 697 -874 216 -202 399 -332 604 -430 232 -110 358 -142 612
-151 788 -31 1828 396 2417 992 220 223 344 417 398 620 27 105 25 171 -10
354 -105 543 -146 996 -137 1513 6 394 11 436 98 842 38 178 42 215 43 335 0
119 -3 146 -27 225 -81 268 -228 428 -414 450 -229 26 -506 -164 -731 -500
-63 -95 -159 -275 -230 -432 -28 -64 -36 -73 -67 -82 -80 -22 -132 19 -229
184 -260 437 -603 1370 -721 1955 -34 173 -97 302 -189 387 -41 39 -81 66
-112 77 -62 21 -156 20 -219 -2z m186 -76 c55 -19 105 -62 148 -127 52 -78 74
-140 112 -311 86 -393 269 -956 454 -1398 126 -302 308 -640 394 -733 38 -42
79 -60 136 -60 91 0 144 44 190 158 165 405 415 722 660 837 87 40 195 50 274
23 142 -47 264 -245 301 -487 14 -98 0 -237 -41 -401 -60 -240 -85 -419 -99
-724 -22 -465 29 -1089 135 -1633 37 -194 40 -251 15 -345 -143 -550 -956
-1174 -1875 -1440 -444 -128 -858 -157 -1159 -80 -109 27 -299 107 -409 171
-385 226 -843 708 -1113 1172 -70 119 -77 128 -176 207 -349 280 -939 855
-1110 1082 -113 151 -260 438 -328 640 -67 201 -76 352 -25 429 61 94 257 68
491 -65 109 -61 709 -489 995 -708 106 -81 151 -97 193 -69 40 25 51 81 36
173 -23 145 -87 297 -204 487 -319 517 -545 1046 -616 1439 -13 72 -20 154
-20 236 0 171 24 256 94 329 64 68 134 86 276 70 53 -6 108 -8 122 -5 36 9 63
59 77 138 24 140 72 242 146 307 87 76 190 81 329 14 191 -92 328 -247 604
-688 270 -431 483 -733 705 -999 113 -135 157 -176 186 -173 16 2 27 10 29 22
2 10 -19 67 -48 127 -158 333 -332 1059 -381 1590 -6 69 -10 197 -8 285 4 158
4 159 36 214 48 84 116 159 225 248 31 25 133 62 173 61 22 0 56 -6 76 -13z"/>
<path d="M3490 6963 c0 -34 108 -358 117 -349 6 5 -50 194 -83 282 -26 70 -34
86 -34 67z"/>
<path d="M3655 6520 c18 -63 211 -390 333 -565 53 -76 337 -376 375 -396 38
-21 13 15 -80 114 -54 56 -135 147 -180 201 -87 104 -269 364 -324 462 -52 93
-132 211 -124 184z"/>
<path d="M6509 5573 c-98 -123 -155 -216 -197 -326 -72 -188 -85 -253 -86
-427 0 -98 5 -183 14 -230 l15 -75 6 190 c8 232 17 284 75 467 50 154 121 305
188 396 49 67 59 82 52 82 -2 0 -33 -35 -67 -77z"/>
<path d="M4420 4247 l-95 -11 140 -8 c206 -12 331 -33 437 -73 50 -19 94 -32
97 -30 2 3 -35 23 -82 45 -164 77 -308 100 -497 77z"/>
<path d="M6700 8503 c-184 -18 -370 -68 -503 -135 -70 -35 -78 -41 -75 -65 6
-48 27 -49 120 -5 334 160 789 172 1209 32 228 -76 397 -178 537 -325 90 -94
125 -114 138 -80 4 8 3 27 -1 42 -9 39 -176 200 -270 262 -217 142 -500 238
-797 270 -91 10 -278 12 -358 4z"/>
<path d="M3691 2168 c-10 -28 7 -79 55 -166 151 -276 487 -566 834 -721 115
-51 265 -93 340 -95 61 -1 65 0 68 22 5 30 -14 52 -45 52 -45 0 -197 42 -293
82 -201 82 -408 219 -583 387 -147 141 -218 241 -302 424 -21 44 -60 52 -74
15z"/>
<path d="M4093 2023 c-43 -17 22 -114 152 -227 148 -129 288 -218 442 -282
206 -86 413 -101 413 -30 0 26 -26 36 -90 36 -228 1 -570 182 -792 420 -80 85
-95 96 -125 83z"/>
</g>
</svg>
