<?xml version="1.0" standalone="no"?>
<!DOCTYPE svg PUBLIC "-//W3C//DTD SVG 20010904//EN"
 "http://www.w3.org/TR/2001/REC-SVG-20010904/DTD/svg10.dtd">
<svg version="1.0" xmlns="http://www.w3.org/2000/svg"
 width="1024.000000pt" height="1024.000000pt" viewBox="0 0 1024.000000 1024.000000"
 preserveAspectRatio="xMidYMid meet">

<g transform="translate(0.000000,1024.000000) scale(0.100000,-0.100000)"
fill="current" stroke="current">
<path d="M4810 9354 c-19 -2 -80 -9 -135 -15 -503 -52 -1061 -219 -1500 -448
-846 -441 -1501 -1125 -1901 -1986 -344 -737 -466 -1559 -353 -2375 92 -661
354 -1322 740 -1862 415 -581 959 -1043 1594 -1355 659 -323 1438 -476 2155
-423 1242 92 2356 698 3102 1687 83 109 187 262 210 308 16 31 14 55 -5 55 -6
0 -83 -71 -171 -158 -182 -178 -314 -287 -496 -407 -998 -657 -2260 -722
-3315 -171 -1112 580 -1791 1744 -1752 3001 33 1024 539 1965 1377 2562 637
453 1449 666 2225 582 740 -79 1416 -397 1941 -911 96 -95 139 -129 163 -134
31 -6 50 4 51 28 0 11 -140 219 -218 323 -533 711 -1258 1230 -2092 1500 -251
80 -521 140 -821 181 -108 15 -709 28 -799 18z"/>
</g>
</svg>
