<?xml version="1.0" standalone="no"?>
<!DOCTYPE svg PUBLIC "-//W3C//DTD SVG 20010904//EN"
 "http://www.w3.org/TR/2001/REC-SVG-20010904/DTD/svg10.dtd">
<svg version="1.0" xmlns="http://www.w3.org/2000/svg"
 width="1024.000000pt" height="1024.000000pt" viewBox="0 0 1024.000000 1024.000000"
 preserveAspectRatio="xMidYMid meet">

<g transform="translate(0.000000,1024.000000) scale(0.100000,-0.100000)"
fill="current" stroke="current">
<path d="M6735 9014 c-215 -18 -428 -64 -609 -133 -128 -48 -150 -61 -176
-104 -25 -40 -25 -73 0 -114 36 -60 58 -61 173 -10 303 136 703 184 1082 132
606 -84 1181 -404 1532 -852 68 -87 82 -94 137 -73 36 13 44 68 20 123 -28 62
-158 219 -276 332 -374 361 -884 605 -1420 680 -108 15 -377 26 -463 19z"/>
<path d="M5204 8910 c-93 -33 -178 -97 -284 -217 -76 -85 -125 -184 -141 -283
-15 -93 -6 -411 16 -595 48 -402 128 -799 231 -1149 19 -65 33 -120 31 -122
-14 -14 -438 595 -599 861 -178 293 -297 465 -386 557 -246 255 -496 352 -679
262 -61 -29 -130 -94 -166 -157 -33 -56 -72 -173 -87 -259 -17 -97 -20 -100
-105 -81 -229 49 -417 -60 -475 -275 -110 -413 155 -1219 677 -2061 37 -58 81
-137 99 -176 48 -105 105 -305 85 -305 -4 0 -34 21 -67 46 -108 84 -516 379
-724 523 -232 161 -369 233 -545 287 -104 33 -134 38 -220 38 -84 0 -107 -3
-140 -21 -47 -25 -86 -64 -111 -113 -26 -50 -31 -214 -10 -317 54 -267 269
-711 449 -928 203 -243 729 -754 1070 -1038 161 -135 169 -143 219 -231 282
-500 819 -1057 1258 -1304 157 -88 378 -165 555 -194 117 -18 443 -15 590 6
579 84 1156 306 1650 634 471 314 802 697 895 1035 29 107 24 221 -23 464
-155 807 -180 1724 -62 2219 45 189 85 434 85 523 -1 161 -62 362 -151 495
-171 256 -452 279 -748 61 -83 -62 -237 -210 -313 -302 -121 -148 -260 -384
-336 -571 -21 -52 -22 -54 -54 -47 -18 4 -44 14 -58 24 -67 47 -272 423 -404
738 -195 468 -399 1099 -476 1471 -45 220 -113 356 -223 446 -91 74 -213 96
-323 56z m177 -264 c55 -19 105 -62 148 -127 52 -78 74 -140 112 -311 86 -393
269 -956 454 -1398 126 -302 308 -640 394 -733 39 -43 80 -60 143 -60 52 0 64
4 127 46 82 54 106 85 151 192 154 369 371 662 555 751 98 47 200 57 284 29
142 -47 264 -245 301 -487 14 -98 0 -237 -41 -401 -60 -240 -85 -419 -99 -724
-22 -465 29 -1089 135 -1633 37 -194 40 -251 15 -345 -143 -550 -956 -1174
-1875 -1440 -444 -128 -858 -157 -1159 -80 -109 27 -299 107 -409 171 -385
226 -843 708 -1113 1172 -70 119 -77 128 -176 207 -349 280 -939 855 -1110
1082 -108 143 -254 425 -322 620 -86 250 -85 421 4 481 76 51 227 5 425 -130
227 -154 652 -460 900 -648 158 -119 188 -135 246 -127 54 7 87 31 106 75 14
32 14 49 4 120 -21 146 -85 301 -205 496 -319 517 -545 1046 -616 1439 -13 72
-20 154 -20 236 0 171 24 256 94 329 64 68 134 86 276 70 53 -6 108 -8 122 -5
36 9 63 59 77 138 24 140 72 242 146 307 87 76 190 81 329 14 198 -95 322
-240 642 -749 286 -455 569 -841 788 -1075 41 -44 77 -50 100 -16 24 34 20 61
-29 161 -115 238 -229 624 -319 1078 -82 411 -116 788 -83 915 31 119 195 297
324 350 65 26 120 30 174 10z"/>
<path d="M3394 7083 c3 -10 8 -31 12 -48 12 -52 104 -296 151 -398 44 -96 227
-409 326 -557 28 -41 81 -113 118 -160 87 -110 350 -370 374 -370 22 0 26 -6
-117 150 -53 58 -128 143 -167 189 -81 96 -265 360 -317 456 -19 35 -54 93
-78 129 -63 96 -79 133 -141 326 -55 171 -106 280 -132 280 -7 0 -13 5 -13 10
0 6 -5 10 -11 10 -6 0 -8 -8 -5 -17z"/>
<path d="M6562 5632 c-150 -150 -254 -343 -316 -587 -21 -84 -30 -264 -17
-366 10 -88 58 -219 80 -219 6 0 10 56 10 154 0 406 77 680 277 983 30 44 54
84 54 87 0 20 -38 -2 -88 -52z"/>
<path d="M4430 4249 c-89 -10 -130 -24 -130 -45 0 -9 48 -14 178 -18 206 -8
332 -32 455 -89 67 -31 79 -34 84 -20 14 36 -126 118 -264 154 -94 25 -208 31
-323 18z"/>
<path d="M6640 8620 c-240 -30 -482 -112 -567 -193 -40 -37 -41 -55 -7 -114
42 -71 55 -72 166 -19 345 164 794 178 1219 36 228 -76 397 -178 537 -325 50
-52 99 -95 109 -95 30 0 61 28 68 60 10 46 -29 114 -124 212 -200 209 -503
355 -869 419 -134 23 -414 33 -532 19z"/>
<path d="M3684 2242 c-39 -6 -57 -37 -58 -100 0 -48 7 -70 41 -137 136 -265
419 -533 753 -713 226 -122 506 -188 558 -131 24 25 34 71 23 102 -8 20 -21
26 -83 36 -294 48 -663 264 -917 536 -93 100 -147 177 -202 291 -51 103 -71
123 -115 116z"/>
<path d="M4035 2054 c-28 -30 -32 -66 -11 -107 25 -46 97 -126 181 -199 244
-213 534 -347 752 -348 97 0 109 4 128 41 39 74 9 105 -113 119 -235 27 -510
177 -735 402 -131 132 -155 143 -202 92z"/>
</g>
</svg>
