<?xml version="1.0" standalone="no"?>
<!DOCTYPE svg PUBLIC "-//W3C//DTD SVG 20010904//EN"
 "http://www.w3.org/TR/2001/REC-SVG-20010904/DTD/svg10.dtd">
<svg version="1.0" xmlns="http://www.w3.org/2000/svg"
 width="1024.000000pt" height="1024.000000pt" viewBox="0 0 1024.000000 1024.000000"
 preserveAspectRatio="xMidYMid meet">

<g transform="translate(0.000000,1024.000000) scale(0.100000,-0.100000)"
fill="current" stroke="current">
<path d="M1854 8381 c-34 -3 -68 -12 -77 -19 -14 -12 -16 -256 -16 -2590 -1
-1417 3 -2583 7 -2590 11 -17 15 -17 214 -2 479 36 1344 -81 1995 -269 443
-128 746 -265 874 -393 53 -54 81 -69 92 -50 3 4 7 1151 10 2550 l5 2542 -23
48 c-33 68 -68 107 -155 172 -382 283 -1364 539 -2295 600 -167 10 -526 11
-631 1z"/>
<path d="M7730 8379 c-908 -60 -1894 -321 -2270 -599 -86 -64 -125 -107 -152
-166 -17 -40 -18 -139 -18 -2589 0 -1400 2 -2551 5 -2556 13 -20 39 -6 94 49
128 128 431 265 874 393 651 188 1516 305 1995 269 174 -13 202 -14 208 -7 10
10 4 5181 -6 5191 -6 6 -43 14 -83 18 -94 9 -488 7 -647 -3z"/>
<path d="M1250 7453 c-8 -3 -23 -12 -32 -21 -17 -14 -18 -148 -18 -2539 0
-2472 0 -2525 19 -2562 11 -20 38 -54 60 -74 l41 -37 1706 0 c1156 0 1712 3
1725 10 45 24 4 146 -72 215 -260 238 -910 418 -1809 500 -249 23 -822 31
-1099 15 l-225 -13 -24 28 c-20 24 -23 37 -22 94 1 36 2 1039 1 2229 l-1 2162
-117 -1 c-65 0 -125 -3 -133 -6z"/>
<path d="M8737 7369 c-4 -51 -7 -1058 -7 -2239 0 -2127 0 -2147 -20 -2165 -18
-17 -32 -17 -242 -5 -276 16 -849 8 -1098 -15 -899 -82 -1549 -262 -1809 -500
-76 -69 -117 -191 -72 -215 13 -7 569 -10 1725 -10 l1706 0 41 37 c22 20 50
55 62 77 l22 41 0 2517 0 2517 -23 23 c-21 21 -33 23 -151 26 l-128 4 -6 -93z"/>
</g>
</svg>
