<?xml version="1.0" standalone="no"?>
<!DOCTYPE svg PUBLIC "-//W3C//DTD SVG 20010904//EN"
 "http://www.w3.org/TR/2001/REC-SVG-20010904/DTD/svg10.dtd">
<svg version="1.0" xmlns="http://www.w3.org/2000/svg"
 width="1024.000000pt" height="1024.000000pt" viewBox="0 0 1024.000000 1024.000000"
 preserveAspectRatio="xMidYMid meet">

<g transform="translate(0.000000,1024.000000) scale(0.100000,-0.100000)"
fill="current" stroke="current">
<path d="M6479 9957 c-15 -12 -46 -59 -69 -104 -78 -154 -161 -216 -363 -273
-122 -34 -285 -107 -432 -194 -132 -78 -252 -214 -306 -346 -30 -76 -38 -246
-15 -345 17 -69 65 -170 113 -233 l24 -32 46 31 c57 40 252 132 324 153 67 21
228 46 292 46 26 0 47 2 47 5 0 3 -16 26 -37 52 -50 66 -83 143 -90 207 -5 44
-1 64 20 110 43 94 62 113 231 225 88 59 178 127 199 150 53 58 115 156 127
200 30 110 -21 371 -73 371 -6 0 -24 -10 -38 -23z"/>
<path d="M2667 9543 c-14 -13 -6 -80 19 -157 14 -44 27 -114 30 -155 5 -66 2
-85 -21 -146 -15 -38 -48 -110 -75 -160 -188 -348 -237 -680 -134 -904 51
-113 165 -226 282 -281 36 -17 194 -60 222 -60 5 0 14 26 21 58 16 77 74 242
111 316 39 77 70 123 149 217 l62 74 -59 11 c-161 29 -247 89 -283 196 -26 77
-26 128 0 248 44 204 50 259 39 355 -16 139 -33 178 -109 255 -86 88 -226 161
-254 133z"/>
<path d="M6693 9304 c-3 -9 5 -50 18 -92 19 -61 24 -99 24 -182 0 -97 -2 -110
-32 -172 -57 -120 -168 -201 -318 -232 -38 -8 -133 -20 -210 -26 -363 -28
-525 -82 -723 -238 -118 -92 -216 -229 -264 -365 -45 -129 -19 -315 60 -429
l38 -53 99 -12 c136 -17 289 -48 414 -84 57 -17 110 -28 117 -25 9 3 14 20 14
44 0 65 29 235 50 298 43 124 114 199 283 299 184 109 373 240 432 298 68 68
139 188 182 308 36 102 38 245 4 374 -26 100 -90 247 -123 282 -25 27 -56 30
-65 7z"/>
<path d="M3280 9215 c-20 -24 -6 -39 73 -78 198 -98 297 -279 258 -470 -21
-98 -87 -205 -229 -367 -167 -191 -268 -376 -309 -565 -37 -169 -14 -376 59
-525 42 -87 141 -185 229 -226 75 -37 174 -60 192 -46 7 5 44 34 82 64 99 78
234 166 348 227 53 29 97 59 97 66 0 7 -13 26 -29 41 -56 56 -135 170 -175
254 -40 82 -41 88 -41 185 1 75 7 127 27 205 102 399 117 530 80 677 -43 169
-123 310 -217 383 -90 70 -216 139 -297 165 -90 29 -130 31 -148 10z"/>
<path d="M4036 8389 c-2 -8 -12 -57 -22 -109 -9 -52 -35 -160 -57 -240 -29
-108 -41 -171 -44 -247 -6 -117 -15 -104 102 -138 33 -9 79 -28 101 -41 61
-34 132 -118 140 -162 9 -58 14 -70 28 -75 8 -3 55 8 106 24 125 39 301 78
433 95 123 16 144 24 153 60 15 58 -3 198 -40 309 -49 153 -88 210 -210 311
-177 148 -335 210 -563 221 -100 5 -123 3 -127 -8z"/>
<path d="M6579 8140 c-47 -32 -145 -92 -218 -134 -136 -78 -213 -135 -256
-192 l-25 -32 35 -57 c82 -137 93 -273 29 -366 -13 -20 -22 -42 -19 -50 3 -8
52 -38 110 -67 124 -63 221 -126 362 -233 58 -43 112 -79 121 -79 29 0 145
132 194 221 90 162 107 243 88 424 -25 243 -79 362 -254 558 -33 37 -65 67
-71 66 -5 0 -49 -26 -96 -59z"/>
<path d="M8141 7795 c-83 -19 -162 -56 -227 -105 -56 -42 -142 -150 -174 -218
-17 -36 -60 -194 -60 -222 0 -5 26 -14 58 -21 77 -16 242 -74 316 -111 77 -39
123 -70 217 -149 l74 -62 11 59 c29 161 89 247 196 283 77 26 128 26 248 0
204 -44 259 -50 355 -39 139 16 178 33 255 109 71 70 144 193 138 234 -5 33
-61 33 -160 2 -45 -14 -116 -28 -157 -31 -66 -5 -85 -2 -146 21 -38 15 -110
48 -160 75 -113 61 -218 103 -365 147 -96 29 -135 35 -235 38 -83 3 -140 0
-184 -10z"/>
<path d="M4820 7404 c-386 -52 -771 -210 -1086 -444 -128 -95 -359 -327 -456
-456 -398 -534 -548 -1221 -408 -1869 95 -436 315 -835 637 -1152 348 -343
790 -562 1293 -639 157 -25 472 -25 630 -1 501 76 931 286 1284 627 368 355
603 816 682 1340 24 157 24 463 0 620 -73 484 -266 895 -588 1251 -191 212
-479 419 -755 543 -184 83 -464 159 -683 186 -117 14 -424 11 -550 -6z"/>
<path d="M7423 7176 c-167 -32 -281 -90 -365 -186 -56 -63 -101 -154 -118
-233 l-11 -57 69 -88 c89 -113 142 -191 222 -331 36 -63 70 -116 76 -118 6 -2
24 9 40 26 56 56 170 135 254 175 82 40 88 41 185 41 75 -1 127 -7 205 -27
399 -102 530 -117 677 -80 169 43 310 123 383 217 101 131 190 320 190 404 0
31 -22 56 -43 48 -7 -3 -30 -39 -50 -80 -98 -198 -279 -297 -470 -258 -98 21
-205 87 -367 229 -129 113 -300 223 -405 261 -166 61 -341 82 -472 57z"/>
<path d="M2635 6999 c-214 -25 -342 -87 -527 -253 -38 -33 -68 -64 -68 -68 0
-5 27 -48 59 -97 33 -48 93 -147 135 -220 78 -136 136 -213 192 -256 l32 -25
57 35 c137 82 273 93 366 29 20 -13 42 -22 50 -19 8 3 37 51 66 108 58 114
158 269 237 367 65 81 79 105 71 130 -19 58 -227 204 -361 251 -70 25 -193 32
-309 18z"/>
<path d="M1325 6904 c-11 -3 -58 -14 -105 -26 -93 -22 -241 -86 -277 -120 -27
-25 -30 -56 -7 -65 9 -3 50 5 92 18 61 19 99 24 182 24 97 0 110 -2 172 -32
120 -57 201 -168 232 -318 8 -38 20 -133 26 -210 28 -363 82 -525 238 -723 92
-117 228 -216 365 -264 137 -48 342 -15 450 74 25 21 29 33 43 138 18 140 54
307 89 418 15 46 24 90 21 98 -3 9 -20 14 -44 14 -65 0 -235 29 -298 50 -124
43 -199 114 -299 283 -109 184 -240 373 -298 432 -69 69 -191 140 -308 181
-72 25 -224 41 -274 28z"/>
<path d="M366 6575 c-43 -13 -86 -30 -95 -39 -27 -28 6 -65 108 -121 168 -91
209 -143 268 -330 53 -171 115 -314 200 -459 83 -142 217 -261 353 -317 76
-30 246 -38 345 -15 69 17 170 65 233 113 l32 24 -31 46 c-40 57 -132 252
-153 324 -21 67 -46 228 -46 292 0 26 -2 47 -5 47 -3 0 -26 -16 -52 -37 -66
-50 -143 -83 -207 -90 -44 -5 -64 -1 -110 20 -94 43 -113 62 -225 231 -59 88
-127 178 -150 199 -58 53 -156 115 -200 127 -62 17 -179 11 -265 -15z"/>
<path d="M7682 6309 c-6 -13 -17 -51 -27 -84 -9 -33 -28 -79 -41 -101 -34 -61
-118 -132 -162 -140 -60 -10 -72 -15 -72 -30 0 -8 15 -65 34 -127 44 -146 72
-276 90 -423 18 -149 17 -147 151 -141 120 5 285 55 379 113 80 51 213 211
271 329 64 127 86 222 88 374 l2 123 -135 28 c-74 15 -187 42 -250 60 -82 23
-144 34 -217 38 -101 5 -102 4 -111 -19z"/>
<path d="M7775 5071 c-92 -15 -176 -49 -227 -93 -25 -21 -29 -34 -43 -148 -18
-144 -54 -312 -90 -423 -14 -43 -23 -82 -20 -87 4 -6 23 -10 44 -10 64 0 235
-29 297 -50 124 -43 199 -114 299 -283 109 -184 240 -373 298 -432 68 -68 188
-139 308 -182 150 -54 355 -32 549 58 93 44 130 72 130 101 0 30 -28 32 -108
7 -61 -19 -99 -24 -182 -24 -97 0 -110 2 -172 32 -120 57 -201 168 -232 318
-8 39 -20 133 -26 210 -15 192 -45 364 -81 454 -136 352 -466 596 -744 552z"/>
<path d="M2455 4960 c-205 -54 -278 -98 -392 -235 -151 -181 -213 -342 -216
-564 l-2 -123 135 -28 c74 -15 187 -42 250 -60 82 -23 144 -34 217 -38 117 -5
104 -14 138 103 9 33 28 79 41 101 34 61 118 132 162 140 60 10 72 15 72 30 0
8 -15 65 -34 127 -44 146 -72 276 -90 423 -11 90 -19 121 -32 131 -26 19 -166
15 -249 -7z"/>
<path d="M8685 4944 c-61 -15 -164 -66 -223 -111 l-32 -24 31 -46 c40 -57 132
-252 153 -324 21 -67 46 -228 46 -291 0 -27 2 -48 5 -48 3 0 26 16 52 37 66
50 143 83 207 90 44 5 64 1 110 -20 94 -43 113 -62 225 -231 113 -168 153
-212 253 -277 75 -48 113 -59 204 -59 78 0 226 38 253 64 27 28 -6 65 -108
121 -168 91 -209 143 -268 330 -53 171 -115 314 -200 459 -83 142 -217 261
-353 317 -72 29 -264 36 -355 13z"/>
<path d="M7755 4144 c-38 -30 -141 -74 -199 -85 -71 -13 -145 1 -198 37 -20
14 -42 23 -48 19 -6 -4 -33 -51 -60 -105 -54 -107 -177 -296 -264 -404 -31
-38 -56 -77 -56 -85 0 -28 133 -144 221 -193 162 -90 243 -107 424 -88 243 25
362 79 558 254 37 33 67 64 67 68 0 4 -31 55 -70 113 -38 58 -100 160 -137
227 -48 85 -88 141 -135 189 -37 38 -71 69 -75 69 -4 0 -17 -8 -28 -16z"/>
<path d="M2904 4051 c-56 -56 -170 -135 -254 -175 -82 -40 -88 -41 -185 -41
-75 1 -127 7 -205 27 -399 102 -530 117 -677 80 -169 -43 -310 -123 -383 -217
-101 -131 -190 -320 -190 -404 0 -31 22 -56 43 -48 7 3 30 39 50 80 98 198
279 297 470 258 98 -21 205 -87 367 -229 191 -167 376 -268 565 -309 169 -37
376 -14 525 59 86 42 185 141 226 228 34 71 58 165 47 183 -4 6 -39 52 -77
102 -86 109 -138 188 -214 325 -31 57 -62 105 -68 107 -6 2 -24 -9 -40 -26z"/>
<path d="M1886 3283 c-22 -155 -91 -256 -198 -292 -77 -26 -128 -26 -248 0
-204 44 -259 50 -355 39 -139 -16 -178 -33 -255 -109 -71 -70 -144 -193 -138
-234 5 -33 61 -33 160 -2 45 14 116 28 157 31 66 5 85 2 146 -21 39 -15 111
-48 160 -75 348 -188 680 -237 904 -134 113 51 226 165 281 282 17 36 60 194
60 222 0 5 -26 14 -57 21 -87 17 -248 76 -333 120 -42 21 -113 69 -159 107
-129 105 -118 100 -125 45z"/>
<path d="M3440 3242 c-103 -108 -192 -283 -206 -408 -8 -61 11 -262 32 -343
19 -75 82 -204 129 -266 55 -71 158 -185 167 -185 5 0 48 27 97 59 48 33 147
93 220 135 136 78 213 136 256 192 l25 32 -35 57 c-83 138 -93 273 -29 367 14
20 23 42 19 47 -3 6 -54 35 -113 66 -125 64 -240 138 -371 241 -52 41 -101 74
-110 74 -9 0 -45 -31 -81 -68z"/>
<path d="M6655 3269 c-94 -78 -240 -177 -367 -249 -71 -40 -128 -76 -128 -81
0 -4 13 -21 29 -37 58 -57 135 -168 175 -252 40 -82 41 -88 41 -185 -1 -75 -7
-127 -27 -205 -102 -399 -117 -530 -80 -677 43 -169 123 -310 217 -383 131
-101 320 -190 404 -190 31 0 56 22 48 43 -3 7 -39 30 -80 50 -198 98 -297 279
-258 470 21 98 87 205 229 367 167 191 268 376 309 565 37 169 14 376 -59 525
-61 127 -205 238 -346 269 -29 6 -54 11 -55 11 -1 0 -25 -19 -52 -41z"/>
<path d="M5845 2829 c-130 -42 -294 -77 -436 -93 -96 -12 -126 -19 -137 -33
-26 -34 -10 -201 31 -328 51 -153 89 -210 211 -311 182 -152 343 -214 565
-217 l123 -2 28 135 c15 74 42 187 60 250 23 82 34 144 38 217 5 117 14 104
-103 138 -33 9 -79 28 -101 41 -61 34 -132 118 -140 162 -14 85 -8 83 -139 41z"/>
<path d="M4315 2840 c-4 -6 -6 -25 -6 -43 -1 -63 -29 -234 -49 -293 -43 -124
-114 -199 -283 -299 -184 -109 -373 -240 -432 -298 -68 -68 -139 -188 -182
-308 -54 -150 -32 -355 58 -549 44 -93 72 -130 101 -130 30 0 32 28 7 108 -19
61 -24 99 -24 182 0 97 2 110 32 172 57 120 168 201 318 232 39 8 133 20 210
26 363 28 525 82 723 238 117 92 216 228 264 365 48 137 14 343 -74 450 -21
25 -32 29 -118 38 -131 14 -322 53 -434 89 -106 34 -103 33 -111 20z"/>
<path d="M7229 2503 c-16 -78 -74 -243 -111 -317 -39 -77 -70 -123 -149 -217
l-62 -74 59 -11 c161 -29 247 -89 283 -196 26 -77 26 -128 0 -248 -44 -204
-50 -259 -39 -355 16 -139 33 -178 109 -255 70 -71 193 -144 234 -138 33 5 33
61 2 160 -14 45 -28 116 -31 157 -5 66 -2 85 21 146 15 39 48 111 75 160 188
348 237 680 134 904 -51 113 -165 226 -282 281 -36 17 -194 60 -222 60 -5 0
-14 -26 -21 -57z"/>
<path d="M4770 1783 c-48 -35 -263 -137 -330 -157 -68 -21 -229 -46 -292 -46
-27 0 -48 -2 -48 -5 0 -3 16 -26 37 -52 50 -66 83 -143 90 -207 5 -44 1 -64
-20 -110 -43 -94 -62 -113 -231 -225 -168 -113 -212 -153 -277 -253 -48 -75
-59 -113 -59 -204 0 -78 38 -226 64 -253 28 -27 65 6 121 108 91 168 143 209
330 268 171 53 314 115 459 200 142 83 262 217 317 353 30 77 38 240 15 342
-16 73 -85 212 -124 250 -16 15 -19 15 -52 -9z"/>
</g>
</svg>
