<?xml version="1.0" standalone="no"?>
<!DOCTYPE svg PUBLIC "-//W3C//DTD SVG 20010904//EN"
 "http://www.w3.org/TR/2001/REC-SVG-20010904/DTD/svg10.dtd">
<svg version="1.0" xmlns="http://www.w3.org/2000/svg"
 width="1024.000000pt" height="1024.000000pt" viewBox="0 0 1024.000000 1024.000000"
 preserveAspectRatio="xMidYMid meet">

<g transform="translate(0.000000,1024.000000) scale(0.100000,-0.100000)"
fill="current" stroke="current">
<path d="M4825 10229 c-82 -4 -186 -12 -230 -18 -44 -6 -134 -17 -200 -26
-866 -113 -1792 -515 -2488 -1082 -942 -767 -1572 -1814 -1806 -3003 -72 -366
-95 -644 -88 -1070 5 -349 25 -560 83 -860 186 -971 647 -1872 1313 -2564 356
-370 701 -646 1116 -891 135 -79 501 -264 615 -310 677 -272 1288 -394 1975
-395 265 0 425 11 686 45 979 131 1893 540 2654 1189 123 105 387 367 505 501
484 551 837 1186 1058 1905 75 244 136 533 179 850 26 196 28 223 28 615 0
261 -4 443 -12 500 -7 50 -19 144 -28 210 -48 372 -162 808 -305 1170 -18 44
-41 103 -52 130 -11 28 -57 127 -102 220 -502 1037 -1320 1860 -2351 2365
-430 211 -793 334 -1260 429 -135 27 -209 38 -465 71 -201 26 -543 34 -825 19z
m-1887 -2085 c98 -19 240 -88 314 -151 285 -243 348 -630 157 -949 -43 -70
-147 -178 -219 -226 -225 -148 -536 -157 -770 -21 -36 21 -103 76 -150 123
-67 66 -94 104 -128 170 -64 128 -85 227 -80 369 9 201 71 345 211 483 113
111 220 172 362 203 83 18 211 18 303 -1z m4016 -1993 c379 -77 723 -272 915
-521 124 -161 212 -336 288 -575 l38 -120 3 -1467 2 -1468 -620 0 -620 0 -2
1258 -3 1257 -37 78 c-94 197 -263 333 -493 399 -115 33 -333 33 -455 0 -282
-76 -496 -269 -587 -527 l-28 -80 -3 -1192 -3 -1193 -604 0 -605 0 0 2050 0
2050 570 0 570 0 0 -300 c0 -170 4 -300 9 -300 5 0 48 45 95 99 112 128 190
201 304 281 217 153 436 242 701 285 130 21 425 14 565 -14z m-3534 -2101 l0
-2050 -620 0 -620 0 0 2050 0 2050 620 0 620 0 0 -2050z"/>
</g>
</svg>
