<?xml version="1.0" standalone="no"?>
<!DOCTYPE svg PUBLIC "-//W3C//DTD SVG 20010904//EN"
 "http://www.w3.org/TR/2001/REC-SVG-20010904/DTD/svg10.dtd">
<svg version="1.0" xmlns="http://www.w3.org/2000/svg"
 width="1024.000000pt" height="1024.000000pt" viewBox="0 0 1024.000000 1024.000000"
 preserveAspectRatio="xMidYMid meet">

<g transform="translate(0.000000,1024.000000) scale(0.100000,-0.100000)"
fill="current" stroke="current">
<path d="M4825 10229 c-82 -4 -186 -12 -230 -18 -44 -6 -134 -17 -200 -26
-866 -113 -1792 -515 -2488 -1082 -942 -767 -1572 -1814 -1806 -3003 -72 -366
-95 -644 -88 -1070 5 -349 25 -560 83 -860 186 -971 647 -1872 1313 -2564 356
-370 701 -646 1116 -891 135 -79 501 -264 615 -310 677 -272 1288 -394 1975
-395 265 0 425 11 686 45 979 131 1893 540 2654 1189 123 105 387 367 505 501
484 551 837 1186 1058 1905 75 244 136 533 179 850 26 196 28 223 28 615 0
261 -4 443 -12 500 -7 50 -19 144 -28 210 -48 372 -162 808 -305 1170 -18 44
-41 103 -52 130 -11 28 -57 127 -102 220 -502 1037 -1320 1860 -2351 2365
-430 211 -793 334 -1260 429 -135 27 -209 38 -465 71 -201 26 -543 34 -825 19z
m2465 -2771 c492 -666 912 -1234 932 -1263 l38 -53 -67 -43 c-91 -59 -240
-176 -340 -266 l-82 -74 -147 198 c-81 109 -301 405 -489 658 -188 253 -545
734 -794 1069 l-453 610 33 28 c131 109 452 347 469 348 3 0 408 -545 900
-1212z m-1782 -41 c152 -128 536 -451 852 -717 316 -266 703 -592 860 -724
157 -132 315 -265 351 -296 l66 -57 -60 -69 c-85 -96 -204 -249 -262 -333 -27
-39 -51 -71 -54 -71 -3 0 -130 105 -282 233 -151 127 -387 327 -525 442 -137
116 -366 309 -509 430 -143 120 -377 318 -520 438 -143 121 -331 279 -417 351
-86 72 -157 135 -158 139 0 16 364 467 378 467 1 0 128 -105 280 -233z m202
-1747 c756 -359 1391 -659 1410 -667 19 -8 36 -16 38 -18 1 -1 -18 -37 -43
-80 -54 -90 -149 -278 -195 -385 -18 -41 -35 -78 -39 -82 -4 -5 -182 75 -396
175 -215 101 -853 401 -1420 667 -566 266 -1031 484 -1033 485 -5 4 89 208
178 385 73 145 95 181 108 177 9 -3 636 -299 1392 -657z m-435 -1105 c831
-174 1515 -317 1522 -320 7 -2 -1 -41 -27 -122 -20 -65 -52 -181 -70 -258 -17
-77 -35 -147 -38 -156 -6 -13 -208 23 -1522 274 -833 159 -1518 292 -1522 295
-9 9 43 316 82 480 27 111 35 132 48 128 10 -3 697 -147 1527 -321z m-2285
-1375 l0 -870 2140 0 2140 0 0 870 0 870 380 0 380 0 0 -1245 0 -1245 -2895 0
-2895 0 0 1245 0 1245 375 0 375 0 0 -870z m3660 10 l0 -280 -1525 0 -1525 0
0 280 0 280 1525 0 1525 0 0 -280z"/>
</g>
</svg>
